<?xml version="1.0" encoding="UTF-8"?>
<svg width="368px" height="207px" viewBox="0 0 368 207" version="1.1" xmlns="http://www.w3.org/2000/svg" xmlns:xlink="http://www.w3.org/1999/xlink">
    <title>Group</title>
    <g id="Flats" stroke="none" stroke-width="1" fill="none" fill-rule="evenodd">
        <g id="FLATS-V4-//-PROJECTS" transform="translate(-31, -224)">
            <g id="Group" transform="translate(31, 224)">
                <rect id="Rectangle" fill="#161616" x="0" y="0" width="368" height="207"></rect>
                <g id="logo-cn-product-complex" transform="translate(149, 66)" fill="#FFFFFF" fill-rule="nonzero">
                    <path d="M8.79163499,0 L11.3793044,0 C16.6932992,0 18.6130144,4.18392332 18.6130144,10.1247855 L18.6130144,13.4156354 L10.6560388,13.4156354 L10.6560388,8.1162738 C10.6560388,7.64213085 10.2661051,7.25176136 9.79312559,7.25176136 C9.23669121,7.25176136 8.79163499,7.67001326 8.79163499,8.1162738 L8.79163499,28.1146964 C8.79163499,28.6725355 9.29253769,29.0347843 9.73770409,29.0347843 L18.6130144,29.0347843 L18.6130144,36.5376766 L7.98469416,36.5376766 C2.78198305,36.5376766 0.0554372412,32.6607754 0.0554372412,26.7756938 L0.0554372412,10.0686719 L0.0277343609,10.0686719 C0.0277343609,4.18359195 1.27971567,0 8.79165073,0 L8.79163499,0 Z M28.4621124,0.0555439021 L32.5794372,0.0555439021 C37.7821483,0.0555439021 40.2864572,2.59397913 40.2864572,7.7817638 L40.2864572,29.0347527 C40.2864572,34.2504356 37.7543195,36.7887777 32.5794372,36.7887777 L28.4621124,36.7887777 C23.2594013,36.7887777 20.7550924,34.2504371 20.7550924,29.0347527 L20.7550924,7.7817638 C20.7550924,2.56608094 23.2594013,0.0555439021 28.4621124,0.0555439021 Z M42.3730822,0.362771111 L42.4008009,0.362771111 L53.8909482,0.362771111 L56.06128,16.7070061 L58.203358,0.362771111 L69.6940563,0.362771111 L69.7217592,0.362771111 L69.7217592,36.4820712 L61.0415181,36.4820712 L61.0415181,20.1373155 L59.0380175,36.4820712 L53.1954013,36.4820712 L51.0533233,20.1373155 L51.0533233,36.4820712 L42.3730822,36.4820712 L42.3730822,0.362771111 Z M30.4927807,7.30728948 C29.9641751,7.30728948 29.5190245,7.72565184 29.5190245,8.28348934 L29.5190245,28.5330445 C29.5190245,29.0629838 29.9644899,29.5092444 30.5487531,29.5092444 C31.1052033,29.5092444 31.5502437,29.0629838 31.5502437,28.5330445 L31.5502437,8.28348934 C31.5502437,7.72565184 31.1048727,7.30728948 30.4927807,7.30728948 L30.4927807,7.30728948 Z M20.2823333,38.7967371 L28.990293,38.7967371 L28.990293,67.441469 L33.2195626,67.441469 L33.2195626,74.9438091 L20.2823333,74.9438091 L20.2823333,38.7967371 Z M34.8611629,38.7967371 L48.4379668,38.7967371 L48.4379668,46.1879421 L42.8735757,46.1879421 L42.8735757,52.7985185 L48.1597417,52.7985185 L48.1597417,60.3008586 L42.8735757,60.3008586 L42.8735757,67.441469 L48.5216421,67.441469 L48.5216421,74.9438091 L34.8611629,74.9438091 L34.8611629,38.7967371 Z M50.190961,38.7967371 L58.8989207,38.7967371 L60.4291271,47.917535 L62.3212495,38.7967371 L69.9445785,38.7967371 L65.4093809,56.2288278 L70,74.8882495 L61.1806464,74.8882495 L59.5667647,65.6002045 L57.7306147,74.8882495 L50.0518642,74.8882495 L54.6702019,57.4561587 L50.190961,38.7967371 Z M0,38.8529122 L11.4347259,38.8529122 C16.637437,38.8529122 18.6684516,41.3629285 18.6684516,46.5786113 L18.6684516,53.1608636 L18.6407487,53.1608636 C18.6407487,58.3765464 16.6097498,60.9148712 11.4070387,60.9148712 L8.76394785,60.9148712 L8.76394785,75 L0,75 L0,38.8529122 Z M8.73621349,45.8257548 L8.73621349,54.3881787 L9.62629444,54.3881787 C10.1271027,54.3881787 10.5446449,53.9419181 10.5446449,53.4119946 L10.5446449,46.8297424 C10.5446449,46.2719049 10.1271027,45.8257548 9.62629444,45.8257548 L8.73621349,45.8257548 Z" id="complex"></path>
                </g>
            </g>
        </g>
    </g>
</svg>