<?xml version="1.0" encoding="UTF-8"?>
<svg width="368px" height="207px" viewBox="0 0 368 207" version="1.1" xmlns="http://www.w3.org/2000/svg" xmlns:xlink="http://www.w3.org/1999/xlink">
    <title>Group 2</title>
    <g id="Flats" stroke="none" stroke-width="1" fill="none" fill-rule="evenodd">
        <g id="FLATS-V4-//-PROJECTS" transform="translate(-31, -507)">
            <g id="Group-2" transform="translate(31, 507)">
                <rect id="Rectangle" fill="#0080FF" x="0" y="0" width="368" height="207"></rect>
                <g id="covr-red" transform="translate(126.8846, 90)" fill="#FFFFFF" fill-rule="nonzero">
                    <path d="M-1.42108547e-14,16.8531607 C-1.42108547e-14,7.63608428 7.05308408,0 17.2853057,0 C25.1520884,0 29.2993265,4.97497805 29.0677235,11.106892 L20.9677937,11.106892 C20.8905927,9.06343284 19.14585,7.13520632 15.9682565,7.13520632 C11.4720698,7.13520632 7.86832672,10.9148376 7.86832672,15.5425812 C7.86832672,18.7045654 9.88327303,20.8647937 13.4098151,20.8647937 C16.6646096,20.8647937 19.1844505,18.9749781 20.2312961,17.0083406 L28.3312259,17.0083406 C26.6266276,23.1018437 20.6574457,28 12.0927659,28 C4.5347872,27.9984636 -1.42108547e-14,23.3707199 -1.42108547e-14,16.8531607 Z" id="Path"></path>
                    <path d="M32.3076923,16.7004335 C32.3076923,7.52126434 39.7489238,0 50.0615769,0 C57.5796515,0 62.4615385,4.62799759 62.4615385,11.339516 C62.4615385,20.4418592 55.0218752,28 44.7484278,28 C36.9935511,28 32.3092605,23.2951764 32.3092605,16.7004335 L32.3076923,16.7004335 Z M54.4698597,12.6117544 C54.4698597,9.48800966 52.3041398,7.13559787 48.722312,7.13559787 C44.1556384,7.13559787 40.2978029,10.760248 40.2978029,15.4281951 C40.2978029,18.5903529 42.4635227,20.8659386 46.1237618,20.8659386 C50.6104559,20.8659386 54.4682914,17.2797015 54.4682914,12.6132909 L54.4698597,12.6117544 Z" id="Shape"></path>
                    <polygon id="Path" points="64.6153846 1.07692308 73.1189016 1.07692308 75.3735862 17.6925879 75.7296719 17.6925879 84.3103933 1.07692308 92.6153846 1.07692308 77.2706094 28 69.6777897 28"></polygon>
                    <path d="M95.5243047,1.07692308 L106.818168,1.07692308 C111.764566,1.07692308 115.230769,4.07705879 115.230769,8.57726236 C115.230769,12.3848912 112.894108,16.19252 109.154829,18.268712 L109.856138,20.0767611 C110.32316,21.3071538 111.024469,21.6534412 112.15401,21.6534412 L113.517838,21.6534412 L112.349508,28 L108.57144,28 C105.649837,28 104.130852,26.7313011 103.508673,24.5386585 L102.144845,19.8086182 L99.4575294,19.8086182 L97.9385444,28 L90.4615385,28 L95.5243047,1.07692308 Z M103.702619,13.5769778 C105.843783,13.5769778 107.558266,11.8470732 107.558266,9.69273672 C107.558266,8.15436274 106.428724,7.3085635 104.87095,7.3085635 L101.83298,7.3085635 L100.664649,13.5769778 L103.702619,13.5769778 Z" id="Shape"></path>
                </g>
            </g>
        </g>
    </g>
</svg>