<?xml version="1.0" encoding="UTF-8"?>
<svg width="388px" height="156px" viewBox="0 0 388 156" version="1.1" xmlns="http://www.w3.org/2000/svg" xmlns:xlink="http://www.w3.org/1999/xlink">
    <title>Artboard</title>
    <g id="Artboard" stroke="none" stroke-width="1" fill="none" fill-rule="evenodd">
        <g id="Group">
            <rect id="Rectangle" fill="#F4F4F4" x="0" y="0" width="388" height="156"></rect>
            <g id="Medium" transform="translate(4.852, 55.42)" fill="#333333" fill-rule="nonzero">
                <polygon id="Path" points="1.296 8.58 1.296 1.92 1.32 1.92 3.684 8.58 4.776 8.58 7.14 1.92 7.164 1.92 7.164 8.58 8.46 8.58 8.46 0 6.72 0 4.236 6.744 4.212 6.744 1.74 0 0 0 0 8.58"></polygon>
                <path d="M15.444,5.388 C15.444,3.492 14.4,2.268 12.54,2.268 C10.668,2.268 9.516,3.588 9.516,5.508 C9.516,7.38 10.596,8.76 12.54,8.76 C14.148,8.76 15.048,7.872 15.372,6.696 L14.172,6.696 C14.064,7.104 13.644,7.8 12.564,7.8 C11.352,7.8 10.752,6.852 10.728,5.832 L15.432,5.832 C15.444,5.736 15.444,5.556 15.444,5.388 Z M10.728,4.908 C10.8,3.9 11.52,3.228 12.504,3.228 C13.548,3.228 14.22,3.948 14.22,4.908 L10.728,4.908 Z" id="Shape"></path>
                <path d="M20.784,3.204 L20.76,3.204 C20.424,2.724 19.836,2.28 18.876,2.28 C17.316,2.28 16.128,3.504 16.128,5.52 C16.128,7.536 17.316,8.748 18.876,8.748 C19.836,8.748 20.424,8.292 20.76,7.86 L20.784,7.86 L20.784,8.58 L21.96,8.58 L21.96,0 L20.784,0 L20.784,3.204 Z M19.068,7.776 C17.916,7.776 17.352,6.72 17.352,5.52 C17.352,4.32 17.916,3.264 19.068,3.264 C20.124,3.264 20.772,4.128 20.772,5.52 C20.772,6.9 20.124,7.776 19.068,7.776 Z" id="Shape"></path>
                <path d="M24.54,1.368 L24.54,0.096 L23.208,0.096 L23.208,1.368 L24.54,1.368 Z M24.456,8.58 L24.456,2.46 L23.28,2.46 L23.28,8.58 L24.456,8.58 Z" id="Shape"></path>
                <path d="M29.808,6.216 C29.808,7.14 29.16,7.752 28.152,7.752 C27.264,7.752 26.904,7.2 26.904,6.372 L26.904,2.46 L25.728,2.46 L25.728,6.696 C25.728,8.1 26.64,8.748 27.768,8.748 C28.824,8.748 29.46,8.28 29.784,7.812 L29.808,7.812 L29.808,8.58 L30.984,8.58 L30.984,2.46 L29.808,2.46 L29.808,6.216 Z" id="Path"></path>
                <path d="M38.964,2.28 C38.028,2.28 37.404,2.76 36.96,3.348 L36.936,3.348 C36.696,2.664 36.168,2.28 35.316,2.28 C34.392,2.28 33.828,2.76 33.504,3.228 L33.48,3.228 L33.48,2.46 L32.304,2.46 L32.304,8.58 L33.48,8.58 L33.48,4.824 C33.48,3.9 34.032,3.288 34.908,3.288 C35.808,3.288 35.976,3.84 35.976,4.656 L35.976,8.58 L37.152,8.58 L37.152,4.824 C37.152,3.9 37.704,3.288 38.58,3.288 C39.48,3.288 39.648,3.84 39.648,4.656 L39.648,8.58 L40.824,8.58 L40.824,4.332 C40.824,3.024 40.2,2.28 38.964,2.28 Z" id="Path"></path>
            </g>
            <g id="PP-Neue-Montreal" transform="translate(7.52, 10.97)" fill="#333333" fill-rule="nonzero">
                <path d="M7.56,30.03 L7.56,19.152 L14.574,19.152 C20.832,19.152 24.738,15.876 24.738,9.576 C24.738,3.276 20.832,0 14.574,0 L0,0 L0,30.03 L7.56,30.03 Z M7.56,12.978 L7.56,6.174 L12.81,6.174 C15.414,6.174 17.01,7.056 17.01,9.576 C17.01,12.096 15.414,12.978 12.81,12.978 L7.56,12.978 Z" id="Shape"></path>
                <path d="M35.49,30.03 L35.49,19.152 L42.504,19.152 C48.762,19.152 52.668,15.876 52.668,9.576 C52.668,3.276 48.762,0 42.504,0 L27.93,0 L27.93,30.03 L35.49,30.03 Z M35.49,12.978 L35.49,6.174 L40.74,6.174 C43.344,6.174 44.94,7.056 44.94,9.576 C44.94,12.096 43.344,12.978 40.74,12.978 L35.49,12.978 Z" id="Shape"></path>
                <polygon id="Path" points="70.35 30.03 70.35 12.18 70.434 12.18 80.934 30.03 88.494 30.03 88.494 0 80.934 0 80.934 17.85 80.85 17.85 70.35 0 62.79 0 62.79 30.03"></polygon>
                <path d="M113.442,20.076 C113.442,12.138 109.746,7.812 102.438,7.812 C95.214,7.812 91.266,12.978 91.266,19.278 C91.266,25.998 95.466,30.744 102.438,30.744 C108.486,30.744 112.056,27.888 113.274,23.52 L106.428,23.52 C106.008,24.612 105,25.704 102.606,25.704 C100.086,25.704 97.986,24.066 97.986,21.084 L113.442,21.084 L113.442,20.076 Z M98.028,16.926 C98.196,14.154 99.876,12.684 102.438,12.684 C105.042,12.684 106.68,14.154 106.68,16.926 L98.028,16.926 Z" id="Shape"></path>
                <path d="M130.242,20.958 C130.242,23.94 128.772,25.242 126.21,25.242 C123.984,25.242 122.85,24.15 122.85,20.916 L122.85,8.526 L116.13,8.526 L116.13,23.058 C116.13,27.972 118.944,30.702 123.102,30.702 C126.924,30.702 129.024,28.896 130.158,26.922 L130.242,26.922 L130.242,30.03 L136.962,30.03 L136.962,8.526 L130.242,8.526 L130.242,20.958 Z" id="Path"></path>
                <path d="M161.91,20.076 C161.91,12.138 158.214,7.812 150.906,7.812 C143.682,7.812 139.734,12.978 139.734,19.278 C139.734,25.998 143.934,30.744 150.906,30.744 C156.954,30.744 160.524,27.888 161.742,23.52 L154.896,23.52 C154.476,24.612 153.468,25.704 151.074,25.704 C148.554,25.704 146.454,24.066 146.454,21.084 L161.91,21.084 L161.91,20.076 Z M146.496,16.926 C146.664,14.154 148.344,12.684 150.906,12.684 C153.51,12.684 155.148,14.154 155.148,16.926 L146.496,16.926 Z" id="Shape"></path>
                <polygon id="Path" points="180.516 30.03 180.516 11.34 180.6 11.34 186.186 30.03 191.478 30.03 197.064 11.34 197.148 11.34 197.148 30.03 204.288 30.03 204.288 0 195.048 0 188.874 19.152 188.79 19.152 182.616 0 173.376 0 173.376 30.03"></polygon>
                <path d="M218.484,30.744 C225.708,30.744 230.034,25.998 230.034,19.194 C230.034,12.432 225.708,7.812 218.61,7.812 C211.386,7.812 207.06,12.558 207.06,19.32 C207.06,26.124 211.386,30.744 218.484,30.744 Z M218.568,25.704 C215.544,25.704 213.864,23.436 213.864,19.278 C213.864,15.12 215.544,12.852 218.568,12.852 C221.55,12.852 223.23,15.12 223.23,19.278 C223.23,23.436 221.55,25.704 218.568,25.704 Z" id="Shape"></path>
                <path d="M246.666,7.854 C242.844,7.854 240.744,9.66 239.61,11.634 L239.526,11.634 L239.526,8.526 L232.806,8.526 L232.806,30.03 L239.526,30.03 L239.526,17.598 C239.526,14.616 240.996,13.314 243.558,13.314 C245.784,13.314 246.918,14.406 246.918,17.64 L246.918,30.03 L253.638,30.03 L253.638,15.498 C253.638,10.584 250.824,7.854 246.666,7.854 Z" id="Path"></path>
                <path d="M267.624,25.41 C266.322,25.41 265.44,25.2 265.44,22.89 L265.44,13.566 L269.178,13.566 L269.178,8.526 L265.44,8.526 L265.44,2.52 L258.72,2.52 L258.72,8.526 L255.738,8.526 L255.738,13.566 L258.72,13.566 L258.72,23.058 C258.72,28.308 260.736,30.45 265.44,30.45 C266.784,30.45 268.002,30.324 269.43,29.988 L269.43,25.242 C268.632,25.368 268.254,25.41 267.624,25.41 Z" id="Path"></path>
                <path d="M284.382,8.358 C282.03,8.358 280.182,9.786 279.132,12.054 L279.048,12.054 L279.048,8.526 L272.328,8.526 L272.328,30.03 L279.048,30.03 L279.048,20.034 C279.048,16.17 281.82,14.28 284.844,14.28 C285.306,14.28 285.684,14.322 286.23,14.406 L286.23,8.526 C285.474,8.358 284.97,8.358 284.382,8.358 Z" id="Path"></path>
                <path d="M309.078,20.076 C309.078,12.138 305.382,7.812 298.074,7.812 C290.85,7.812 286.902,12.978 286.902,19.278 C286.902,25.998 291.102,30.744 298.074,30.744 C304.122,30.744 307.692,27.888 308.91,23.52 L302.064,23.52 C301.644,24.612 300.636,25.704 298.242,25.704 C295.722,25.704 293.622,24.066 293.622,21.084 L309.078,21.084 L309.078,20.076 Z M293.664,16.926 C293.832,14.154 295.512,12.684 298.074,12.684 C300.678,12.684 302.316,14.154 302.316,16.926 L293.664,16.926 Z" id="Shape"></path>
                <path d="M317.856,30.702 C320.964,30.702 323.442,29.316 324.954,27.426 L325.038,27.426 C325.374,29.232 326.382,30.24 329.07,30.24 C330.036,30.24 331.422,30.114 332.766,29.862 L332.766,26.67 C332.514,26.712 332.388,26.712 332.22,26.712 C331.548,26.712 331.422,26.208 331.422,25.074 L331.422,16.758 C331.422,10.164 328.188,7.812 322.35,7.812 C315.084,7.812 312.06,11.34 311.85,15.456 L318.234,15.456 C318.444,13.356 319.578,12.348 322.056,12.348 C323.988,12.348 324.912,13.104 324.912,14.28 C324.912,16.422 321.594,16.758 319.242,17.262 C314.664,18.228 311.01,19.95 311.01,24.402 C311.01,28.224 313.656,30.702 317.856,30.702 Z M320.67,26.082 C318.948,26.082 317.898,25.326 317.898,23.688 C317.898,22.176 318.78,21.126 321.258,20.538 C323.022,20.118 324.03,19.866 324.912,19.53 L324.912,21.336 C324.912,23.814 323.358,26.082 320.67,26.082 Z" id="Shape"></path>
                <polygon id="Path" points="342.3 30.03 342.3 0 335.58 0 335.58 30.03"></polygon>
            </g>
            <g id="AaBbCcDdEeFfGgHhIiJj" transform="translate(4.048, 72.252)" fill="#333333" fill-rule="nonzero">
                <path d="M1.392,8.748 L2.1,6.684 L5.688,6.684 L6.396,8.748 L7.836,8.748 L4.62,0.168 L3.192,0.168 L0,8.748 L1.392,8.748 Z M3.888,1.392 L3.912,1.392 L5.316,5.568 L2.496,5.568 L3.888,1.392 Z" id="Shape"></path>
                <path d="M10.08,8.916 C11.076,8.916 11.772,8.52 12.168,7.884 L12.192,7.884 C12.264,8.58 12.576,8.808 13.164,8.808 C13.356,8.808 13.56,8.784 13.764,8.736 L13.764,8.016 C13.692,8.028 13.656,8.028 13.62,8.028 C13.392,8.028 13.332,7.8 13.332,7.356 L13.332,4.548 C13.332,2.964 12.324,2.436 11.064,2.436 C9.192,2.436 8.424,3.36 8.364,4.536 L9.564,4.536 C9.624,3.72 9.948,3.384 11.016,3.384 C11.916,3.384 12.18,3.756 12.18,4.2 C12.18,4.8 11.592,4.92 10.632,5.1 C9.108,5.388 8.076,5.796 8.076,7.164 C8.076,8.208 8.856,8.916 10.08,8.916 Z M10.344,7.968 C9.612,7.968 9.3,7.656 9.3,7.08 C9.3,6.444 9.756,6.144 10.836,5.928 C11.46,5.796 11.988,5.664 12.18,5.484 L12.18,6.36 C12.18,7.428 11.4,7.968 10.344,7.968 Z" id="Shape"></path>
                <path d="M18.624,8.748 C20.4,8.748 21.54,7.884 21.54,6.24 C21.54,4.956 20.772,4.296 19.872,4.14 L19.872,4.116 C20.58,3.876 21.204,3.384 21.204,2.328 C21.204,0.96 20.172,0.168 18.408,0.168 L14.796,0.168 L14.796,8.748 L18.624,8.748 Z M16.116,3.732 L16.116,1.308 L18.468,1.308 C19.368,1.308 19.824,1.764 19.824,2.52 C19.824,3.288 19.452,3.732 18.372,3.732 L16.116,3.732 Z M16.116,7.608 L16.116,4.776 L18.708,4.776 C19.608,4.776 20.16,5.292 20.16,6.192 C20.16,6.996 19.8,7.608 18.528,7.608 L16.116,7.608 Z" id="Shape"></path>
                <path d="M25.62,2.448 C24.66,2.448 24.072,2.916 23.736,3.348 L23.712,3.348 L23.712,0.168 L22.536,0.168 L22.536,8.748 L23.712,8.748 L23.712,7.992 L23.736,7.992 C24.072,8.484 24.66,8.916 25.62,8.916 C27.18,8.916 28.368,7.704 28.368,5.688 C28.368,3.672 27.18,2.448 25.62,2.448 Z M25.428,7.944 C24.372,7.944 23.724,7.068 23.724,5.688 C23.724,4.296 24.372,3.432 25.428,3.432 C26.58,3.432 27.132,4.488 27.132,5.688 C27.132,6.888 26.58,7.944 25.428,7.944 Z" id="Shape"></path>
                <path d="M33.132,8.916 C35.292,8.916 36.636,7.536 36.828,5.628 L35.448,5.628 C35.364,6.672 34.776,7.776 33.12,7.776 C31.224,7.776 30.504,6.168 30.504,4.452 C30.504,2.748 31.224,1.14 33.12,1.14 C34.764,1.14 35.292,2.244 35.448,3.084 L36.828,3.084 C36.624,1.368 35.292,0 33.144,0 C30.708,0 29.124,1.872 29.124,4.464 C29.124,7.044 30.696,8.916 33.132,8.916 Z" id="Path"></path>
                <path d="M40.488,8.928 C42.06,8.928 43.152,7.884 43.236,6.48 L42.024,6.48 C41.964,7.176 41.616,7.944 40.488,7.944 C39.18,7.944 38.7,6.84 38.7,5.688 C38.7,4.536 39.18,3.42 40.488,3.42 C41.604,3.42 41.964,4.212 42.024,4.848 L43.236,4.848 C43.092,3.468 42.048,2.448 40.476,2.448 C38.664,2.448 37.476,3.768 37.476,5.688 C37.476,7.608 38.664,8.928 40.488,8.928 Z" id="Path"></path>
                <path d="M47.568,8.748 C49.944,8.748 51.36,7.224 51.36,4.464 C51.36,1.704 49.92,0.168 47.544,0.168 L44.28,0.168 L44.28,8.748 L47.568,8.748 Z M45.6,7.608 L45.6,1.308 L47.484,1.308 C49.476,1.308 49.992,2.808 49.992,4.464 C49.992,6.12 49.476,7.608 47.484,7.608 L45.6,7.608 Z" id="Shape"></path>
                <path d="M56.796,3.372 L56.772,3.372 C56.436,2.892 55.848,2.448 54.888,2.448 C53.328,2.448 52.14,3.672 52.14,5.688 C52.14,7.704 53.328,8.916 54.888,8.916 C55.848,8.916 56.436,8.46 56.772,8.028 L56.796,8.028 L56.796,8.748 L57.972,8.748 L57.972,0.168 L56.796,0.168 L56.796,3.372 Z M55.08,7.944 C53.928,7.944 53.364,6.888 53.364,5.688 C53.364,4.488 53.928,3.432 55.08,3.432 C56.136,3.432 56.784,4.296 56.784,5.688 C56.784,7.068 56.136,7.944 55.08,7.944 Z" id="Shape"></path>
                <polygon id="Path" points="65.568 8.748 65.568 7.608 60.696 7.608 60.696 4.884 64.86 4.884 64.86 3.744 60.696 3.744 60.696 1.308 65.448 1.308 65.448 0.168 59.376 0.168 59.376 8.748"></polygon>
                <path d="M72,5.556 C72,3.66 70.956,2.436 69.096,2.436 C67.224,2.436 66.072,3.756 66.072,5.676 C66.072,7.548 67.152,8.928 69.096,8.928 C70.704,8.928 71.604,8.04 71.928,6.864 L70.728,6.864 C70.62,7.272 70.2,7.968 69.12,7.968 C67.908,7.968 67.308,7.02 67.284,6 L71.988,6 C72,5.904 72,5.724 72,5.556 Z M67.284,5.076 C67.356,4.068 68.076,3.396 69.06,3.396 C70.104,3.396 70.776,4.116 70.776,5.076 L67.284,5.076 Z" id="Shape"></path>
                <polygon id="Path" points="74.376 8.748 74.376 5.028 78.12 5.028 78.12 3.888 74.376 3.888 74.376 1.308 79.008 1.308 79.008 0.168 73.056 0.168 73.056 8.748"></polygon>
                <path d="M81.792,1.068 C81.96,1.068 82.056,1.08 82.296,1.104 L82.296,0.156 C81.96,0.108 81.78,0.084 81.552,0.084 C80.556,0.084 79.968,0.468 79.968,1.884 L79.968,2.628 L79.128,2.628 L79.128,3.6 L79.968,3.6 L79.968,8.748 L81.156,8.748 L81.156,3.6 L82.296,3.6 L82.296,2.628 L81.156,2.628 L81.156,1.86 C81.156,1.212 81.3,1.068 81.792,1.068 Z" id="Path"></path>
                <path d="M86.676,8.916 C87.984,8.916 88.788,8.436 89.388,7.56 L89.412,7.56 L89.736,8.748 L90.648,8.748 L90.648,4.26 L86.772,4.26 L86.772,5.364 L89.304,5.364 C89.292,6.792 88.164,7.776 86.748,7.776 C84.744,7.776 84.192,6.072 84.192,4.452 C84.192,2.844 84.924,1.14 86.82,1.14 C88.092,1.14 88.896,1.74 89.124,2.82 L90.504,2.82 C90.228,1.188 89.052,0 86.832,0 C84.384,0 82.812,1.872 82.812,4.452 C82.812,7.044 84.204,8.916 86.676,8.916 Z" id="Path"></path>
                <path d="M96.168,3.348 L96.144,3.348 C95.808,2.916 95.244,2.448 94.26,2.448 C92.736,2.448 91.56,3.48 91.56,5.448 C91.56,7.404 92.736,8.436 94.26,8.436 C95.244,8.436 95.808,8.004 96.144,7.512 L96.168,7.512 L96.168,8.34 C96.168,9.492 95.592,9.984 94.476,9.984 C93.48,9.984 93.072,9.552 92.952,9 L91.728,9 C91.848,10.104 92.724,10.944 94.476,10.944 C96.228,10.944 97.344,10.116 97.344,8.268 L97.344,2.628 L96.168,2.628 L96.168,3.348 Z M94.476,7.464 C93.324,7.464 92.784,6.6 92.784,5.448 C92.784,4.296 93.324,3.432 94.476,3.432 C95.532,3.432 96.156,4.104 96.156,5.448 C96.156,6.78 95.532,7.464 94.476,7.464 Z" id="Shape"></path>
                <polygon id="Path" points="100.056 8.748 100.056 4.896 104.268 4.896 104.268 8.748 105.6 8.748 105.6 0.168 104.268 0.168 104.268 3.756 100.056 3.756 100.056 0.168 98.736 0.168 98.736 8.748"></polygon>
                <path d="M110.208,2.448 C109.152,2.448 108.516,2.928 108.192,3.396 L108.168,3.396 L108.168,0.168 L106.992,0.168 L106.992,8.748 L108.168,8.748 L108.168,4.992 C108.168,4.068 108.816,3.456 109.824,3.456 C110.712,3.456 111.072,4.008 111.072,4.824 L111.072,8.748 L112.248,8.748 L112.248,4.5 C112.248,3.096 111.336,2.448 110.208,2.448 Z" id="Path"></path>
                <polygon id="Path" points="114.9 8.748 114.9 0.168 113.58 0.168 113.58 8.748"></polygon>
                <path d="M117.588,1.536 L117.588,0.264 L116.256,0.264 L116.256,1.536 L117.588,1.536 Z M117.504,8.748 L117.504,2.628 L116.328,2.628 L116.328,8.748 L117.504,8.748 Z" id="Shape"></path>
                <path d="M120.972,8.916 C123,8.916 123.576,7.524 123.576,6.072 L123.576,0.168 L122.256,0.168 L122.256,6.072 C122.256,7.056 122.064,7.776 120.948,7.776 C119.82,7.776 119.652,7.056 119.652,6.072 L119.652,5.724 L118.38,5.724 L118.38,6.072 C118.38,7.524 118.944,8.916 120.972,8.916 Z" id="Path"></path>
                <path d="M126.204,1.536 L126.204,0.264 L124.872,0.264 L124.872,1.536 L126.204,1.536 Z M124.656,10.92 C125.52,10.92 126.12,10.38 126.12,9.072 L126.12,2.628 L124.944,2.628 L124.944,9.024 C124.944,9.708 124.764,9.912 124.392,9.912 C124.212,9.912 124.116,9.9 123.924,9.876 L123.924,10.848 C124.224,10.896 124.404,10.92 124.656,10.92 Z" id="Shape"></path>
                <polygon id="Path" points="134.688 8.748 131.052 3.744 134.412 0.168 132.936 0.168 128.868 4.512 128.868 0.168 127.548 0.168 127.548 8.748 128.868 8.748 128.868 6.072 130.236 4.62 133.14 8.748"></polygon>
                <polygon id="Path" points="140.628 8.748 138.024 4.872 140.376 2.628 139.02 2.628 136.344 5.22 136.344 0.168 135.168 0.168 135.168 8.748 136.344 8.748 136.344 6.468 137.232 5.616 139.236 8.748"></polygon>
                <polygon id="Path" points="146.964 8.748 146.964 7.608 142.62 7.608 142.62 0.168 141.3 0.168 141.3 8.748"></polygon>
                <polygon id="Path" points="148.98 8.748 148.98 0.168 147.804 0.168 147.804 8.748"></polygon>
                <polygon id="Path" points="151.68 8.748 151.68 2.088 151.704 2.088 154.068 8.748 155.16 8.748 157.524 2.088 157.548 2.088 157.548 8.748 158.844 8.748 158.844 0.168 157.104 0.168 154.62 6.912 154.596 6.912 152.124 0.168 150.384 0.168 150.384 8.748"></polygon>
                <path d="M166.908,2.448 C165.972,2.448 165.348,2.928 164.904,3.516 L164.88,3.516 C164.64,2.832 164.112,2.448 163.26,2.448 C162.336,2.448 161.772,2.928 161.448,3.396 L161.424,3.396 L161.424,2.628 L160.248,2.628 L160.248,8.748 L161.424,8.748 L161.424,4.992 C161.424,4.068 161.976,3.456 162.852,3.456 C163.752,3.456 163.92,4.008 163.92,4.824 L163.92,8.748 L165.096,8.748 L165.096,4.992 C165.096,4.068 165.648,3.456 166.524,3.456 C167.424,3.456 167.592,4.008 167.592,4.824 L167.592,8.748 L168.768,8.748 L168.768,4.5 C168.768,3.192 168.144,2.448 166.908,2.448 Z" id="Path"></path>
                <polygon id="Path" points="171.432 8.748 171.432 2.148 171.456 2.148 175.452 8.748 176.964 8.748 176.964 0.168 175.632 0.168 175.632 6.768 175.608 6.768 171.624 0.168 170.112 0.168 170.112 8.748"></polygon>
                <path d="M181.584,2.448 C180.528,2.448 179.892,2.928 179.568,3.396 L179.544,3.396 L179.544,2.628 L178.368,2.628 L178.368,8.748 L179.544,8.748 L179.544,4.992 C179.544,4.068 180.192,3.456 181.2,3.456 C182.088,3.456 182.448,4.008 182.448,4.824 L182.448,8.748 L183.624,8.748 L183.624,4.5 C183.624,3.096 182.712,2.448 181.584,2.448 Z" id="Path"></path>
                <path d="M188.784,8.916 C191.352,8.916 192.996,7.032 192.996,4.452 C192.996,1.872 191.352,0 188.784,0 C186.216,0 184.572,1.872 184.572,4.452 C184.572,7.032 186.216,8.916 188.784,8.916 Z M188.784,7.776 C186.756,7.776 185.952,6.216 185.952,4.452 C185.952,2.688 186.756,1.14 188.784,1.14 C190.812,1.14 191.616,2.688 191.616,4.452 C191.616,6.216 190.812,7.776 188.784,7.776 Z" id="Shape"></path>
                <path d="M196.8,8.928 C198.708,8.928 199.86,7.596 199.86,5.676 C199.86,3.768 198.708,2.436 196.812,2.436 C194.892,2.436 193.74,3.78 193.74,5.688 C193.74,7.608 194.892,8.928 196.8,8.928 Z M196.812,7.956 C195.54,7.956 194.964,6.96 194.964,5.688 C194.964,4.404 195.54,3.42 196.812,3.42 C198.06,3.42 198.636,4.404 198.636,5.688 C198.636,6.96 198.06,7.956 196.812,7.956 Z" id="Shape"></path>
                <path d="M202.224,8.748 L202.224,5.268 L204.48,5.268 C206.1,5.268 207.288,4.524 207.288,2.724 C207.288,0.924 206.1,0.168 204.48,0.168 L200.904,0.168 L200.904,8.748 L202.224,8.748 Z M202.224,4.128 L202.224,1.308 L204.42,1.308 C205.416,1.308 205.92,1.752 205.92,2.724 C205.92,3.684 205.416,4.128 204.42,4.128 L202.224,4.128 Z" id="Shape"></path>
                <path d="M211.2,2.448 C210.24,2.448 209.652,2.916 209.316,3.348 L209.292,3.348 L209.292,2.628 L208.116,2.628 L208.116,10.872 L209.292,10.872 L209.292,7.992 L209.316,7.992 C209.652,8.484 210.24,8.916 211.2,8.916 C212.76,8.916 213.948,7.704 213.948,5.688 C213.948,3.672 212.76,2.448 211.2,2.448 Z M211.008,7.944 C209.952,7.944 209.304,7.068 209.304,5.688 C209.304,4.296 209.952,3.432 211.008,3.432 C212.16,3.432 212.712,4.488 212.712,5.688 C212.712,6.888 212.16,7.944 211.008,7.944 Z" id="Shape"></path>
                <path d="M222.144,7.476 C222.78,6.696 223.128,5.652 223.128,4.452 C223.128,1.872 221.484,0 218.916,0 C216.348,0 214.704,1.872 214.704,4.452 C214.704,7.032 216.348,8.916 218.916,8.916 C219.864,8.916 220.68,8.664 221.34,8.208 L222.408,9.288 L223.176,8.508 L222.144,7.476 Z M218.916,7.776 C216.888,7.776 216.084,6.216 216.084,4.452 C216.084,2.688 216.888,1.14 218.916,1.14 C220.944,1.14 221.748,2.688 221.748,4.452 C221.748,5.232 221.592,5.976 221.232,6.564 L220.128,5.448 L219.36,6.228 L220.476,7.356 C220.068,7.62 219.552,7.776 218.916,7.776 Z" id="Shape"></path>
                <path d="M228.54,3.372 L228.516,3.372 C228.18,2.892 227.592,2.448 226.632,2.448 C225.072,2.448 223.884,3.672 223.884,5.688 C223.884,7.704 225.072,8.916 226.632,8.916 C227.592,8.916 228.18,8.46 228.516,8.028 L228.54,8.028 L228.54,10.872 L229.716,10.872 L229.716,2.628 L228.54,2.628 L228.54,3.372 Z M226.824,7.944 C225.672,7.944 225.108,6.888 225.108,5.688 C225.108,4.488 225.672,3.432 226.824,3.432 C227.88,3.432 228.528,4.296 228.528,5.688 C228.528,7.068 227.88,7.944 226.824,7.944 Z" id="Shape"></path>
                <path d="M232.428,8.748 L232.428,5.388 L234.636,5.388 C236.736,5.388 235.92,8.388 236.304,8.748 L237.72,8.748 L237.72,8.664 C237.252,8.52 237.984,5.136 235.992,4.764 L235.992,4.74 C236.94,4.524 237.6,3.732 237.6,2.64 C237.6,1.056 236.58,0.168 234.684,0.168 L231.108,0.168 L231.108,8.748 L232.428,8.748 Z M232.428,4.248 L232.428,1.308 L234.42,1.308 C235.74,1.308 236.268,1.812 236.268,2.736 C236.268,3.72 235.608,4.248 234.396,4.248 L232.428,4.248 Z" id="Shape"></path>
                <path d="M241.608,2.484 C240.78,2.484 240.288,3.024 239.964,3.792 L239.94,3.792 L239.94,2.628 L238.764,2.628 L238.764,8.748 L239.94,8.748 L239.94,5.58 C239.94,4.416 240.708,3.612 241.776,3.612 C241.92,3.612 242.028,3.624 242.172,3.648 L242.172,2.52 C241.992,2.496 241.824,2.484 241.608,2.484 Z" id="Path"></path>
                <path d="M246.228,8.916 C248.376,8.916 249.372,7.812 249.372,6.336 C249.372,4.524 247.812,4.128 246.156,3.708 C245.052,3.432 244.152,3.228 244.152,2.268 C244.152,1.524 244.704,1.128 245.784,1.128 C247.032,1.128 247.62,1.692 247.764,2.724 L249.132,2.724 C249,0.996 247.728,0 245.772,0 C243.924,0 242.772,0.852 242.772,2.34 C242.772,3.972 244.248,4.404 245.592,4.764 C247.152,5.16 247.992,5.316 247.992,6.408 C247.992,7.188 247.572,7.788 246.192,7.788 C244.584,7.788 243.9,7.008 243.804,5.856 L242.436,5.856 C242.532,7.788 244.056,8.916 246.228,8.916 Z" id="Path"></path>
                <path d="M252.78,8.916 C254.388,8.916 255.3,8.196 255.3,7.008 C255.3,5.64 254.076,5.316 252.948,5.052 C252.084,4.86 251.4,4.8 251.4,4.164 C251.4,3.708 251.736,3.396 252.528,3.396 C253.548,3.396 253.8,3.936 253.884,4.404 L255.072,4.404 C254.988,3.348 254.184,2.448 252.504,2.448 C251.028,2.448 250.176,3.156 250.176,4.212 C250.176,5.484 251.4,5.796 252.468,6.048 C253.26,6.216 254.076,6.3 254.076,7.068 C254.076,7.512 253.8,7.968 252.768,7.968 C251.628,7.968 251.196,7.416 251.148,6.708 L249.96,6.708 C249.996,7.956 250.92,8.916 252.78,8.916 Z" id="Path"></path>
                <polygon id="Path" points="258.456 8.748 258.456 1.308 261.228 1.308 261.228 0.168 254.352 0.168 254.352 1.308 257.124 1.308 257.124 8.748"></polygon>
                <path d="M263.88,7.848 C263.376,7.848 263.196,7.704 263.196,7.056 L263.196,3.6 L264.372,3.6 L264.372,2.628 L263.196,2.628 L263.196,0.66 L262.02,0.66 L262.02,2.628 L261.132,2.628 L261.132,3.6 L262.02,3.6 L262.02,7.02 C262.02,8.436 262.632,8.82 263.64,8.82 C263.892,8.82 264.084,8.808 264.384,8.748 L264.384,7.8 C264.18,7.836 264.084,7.848 263.88,7.848 Z" id="Path"></path>
                <path d="M268.692,8.916 C271.056,8.916 272.052,7.68 272.052,5.832 L272.052,0.168 L270.72,0.168 L270.72,5.832 C270.72,7.164 270.06,7.776 268.692,7.776 C267.336,7.776 266.664,7.164 266.664,5.832 L266.664,0.168 L265.344,0.168 L265.344,5.832 C265.344,7.68 266.34,8.916 268.692,8.916 Z" id="Path"></path>
                <path d="M277.38,6.384 C277.38,7.308 276.732,7.92 275.724,7.92 C274.836,7.92 274.476,7.368 274.476,6.54 L274.476,2.628 L273.3,2.628 L273.3,6.864 C273.3,8.268 274.212,8.916 275.34,8.916 C276.396,8.916 277.032,8.448 277.356,7.98 L277.38,7.98 L277.38,8.748 L278.556,8.748 L278.556,2.628 L277.38,2.628 L277.38,6.384 Z" id="Path"></path>
                <polygon id="Path" points="283.188 8.748 286.14 0.168 284.748 0.168 282.48 7.356 282.468 7.356 280.188 0.168 278.736 0.168 281.76 8.748"></polygon>
                <polygon id="Path" points="289.512 8.748 291.696 2.628 290.472 2.628 288.888 7.536 288.876 7.536 287.268 2.628 286.008 2.628 288.192 8.748"></polygon>
                <polygon id="Path" points="295.308 8.748 297.12 1.848 297.144 1.848 298.968 8.748 300.384 8.748 302.532 0.168 301.152 0.168 299.64 6.924 299.616 6.924 297.828 0.168 296.436 0.168 294.66 6.924 294.636 6.924 293.124 0.168 291.744 0.168 293.88 8.748"></polygon>
                <polygon id="Path" points="305.712 8.748 307.032 4.032 307.056 4.032 308.376 8.748 309.588 8.748 311.484 2.628 310.26 2.628 308.952 7.368 308.928 7.368 307.656 2.628 306.468 2.628 305.196 7.368 305.172 7.368 303.876 2.628 302.604 2.628 304.5 8.748"></polygon>
                <polygon id="Path" points="312.492 8.748 314.568 5.328 314.58 5.328 316.68 8.748 318.216 8.748 315.372 4.344 318.072 0.168 316.62 0.168 314.616 3.408 314.604 3.408 312.612 0.168 311.148 0.168 313.848 4.368 310.944 8.748"></polygon>
                <polygon id="Path" points="319.476 8.748 321.096 6.408 321.12 6.408 322.776 8.748 324.156 8.748 321.828 5.616 323.928 2.628 322.584 2.628 321.144 4.812 321.12 4.812 319.656 2.628 318.312 2.628 320.412 5.616 318.108 8.748"></polygon>
                <polygon id="Path" points="327.78 8.748 327.78 5.316 330.852 0.168 329.436 0.168 327.132 4.272 327.108 4.272 324.804 0.168 323.376 0.168 326.448 5.316 326.448 8.748"></polygon>
                <path d="M331.668,10.896 C332.616,10.896 333.204,10.404 333.792,8.892 L336.216,2.628 L334.98,2.628 L333.3,7.308 L333.276,7.308 L331.488,2.628 L330.204,2.628 L332.676,8.688 C332.436,9.648 331.884,9.888 331.416,9.888 C331.224,9.888 331.116,9.876 330.912,9.852 L330.912,10.812 C331.224,10.872 331.404,10.896 331.668,10.896 Z" id="Path"></path>
                <polygon id="Path" points="342.564 8.748 342.564 7.608 337.512 7.608 337.512 7.584 342.444 1.308 342.444 0.168 336.132 0.168 336.132 1.308 340.824 1.308 340.824 1.332 335.892 7.608 335.892 8.748"></polygon>
                <polygon id="Path" points="348.18 8.748 348.18 7.776 344.616 7.776 344.616 7.752 348.048 3.384 348.048 2.628 343.32 2.628 343.32 3.6 346.452 3.6 346.452 3.624 343.104 7.872 343.104 8.748"></polygon>
                <path d="M3.768,22.916 C6.084,22.916 7.056,20.984 7.056,18.608 C7.056,16.232 6.084,14.288 3.768,14.288 C1.452,14.288 0.468,16.232 0.468,18.608 C0.468,20.984 1.452,22.916 3.768,22.916 Z M3.768,21.8 C2.268,21.8 1.824,20.312 1.824,18.608 C1.824,16.904 2.268,15.404 3.768,15.404 C5.256,15.404 5.7,16.904 5.7,18.608 C5.7,20.312 5.256,21.8 3.768,21.8 Z" id="Shape"></path>
                <path d="M9.468,22.748 L10.764,22.748 L10.764,14.456 L9.732,14.456 C9.624,15.452 9.192,15.896 7.728,15.932 L7.728,16.988 C8.472,16.988 9.108,16.928 9.468,16.592 L9.468,22.748 Z" id="Path"></path>
                <path d="M17.892,22.748 L17.892,21.632 L13.668,21.632 L13.668,21.608 C13.908,20.876 14.676,20.42 15.492,19.94 C16.68,19.208 17.988,18.38 17.988,16.772 C17.988,15.188 16.776,14.288 15.276,14.288 C13.176,14.288 12.216,15.62 12.216,17.384 L13.536,17.384 C13.536,16.244 13.944,15.404 15.24,15.404 C16.368,15.404 16.644,16.136 16.644,16.82 C16.644,17.924 15.936,18.272 14.532,19.124 C12.948,20.108 12,21.188 12,22.748 L17.892,22.748 Z" id="Path"></path>
                <path d="M22.212,22.916 C24.036,22.916 25.224,22.016 25.224,20.408 C25.224,19.436 24.78,18.716 23.688,18.368 L23.688,18.344 C24.48,18.008 24.936,17.456 24.936,16.568 C24.936,15.104 23.664,14.288 22.188,14.288 C20.148,14.288 19.104,15.416 19.104,16.952 L20.424,16.952 C20.424,16.148 20.772,15.404 22.176,15.404 C23.196,15.404 23.592,15.98 23.592,16.628 C23.592,17.528 23.004,17.9 22.176,17.9 L21.444,17.9 L21.444,18.968 L22.224,18.968 C23.064,18.968 23.88,19.244 23.88,20.384 C23.88,21.272 23.436,21.8 22.128,21.8 C20.676,21.8 20.196,21.056 20.196,19.916 L18.876,19.916 C18.876,21.812 20.076,22.916 22.212,22.916 Z" id="Path"></path>
                <path d="M31.272,22.748 L31.272,20.852 L32.436,20.852 L32.436,19.736 L31.272,19.736 L31.272,14.456 L29.976,14.456 L26.028,19.652 L26.028,20.852 L29.976,20.852 L29.976,22.748 L31.272,22.748 Z M29.976,16.124 L29.976,19.736 L27.228,19.736 L29.976,16.124 Z" id="Shape"></path>
                <path d="M36.312,22.916 C38.016,22.916 39.336,21.752 39.336,19.916 C39.336,18.332 38.244,17.168 36.672,17.168 C35.784,17.168 35.172,17.444 34.74,17.888 L34.74,17.864 L35.196,15.572 L38.916,15.572 L38.916,14.456 L34.2,14.456 L33.312,18.968 L34.644,18.968 C35.04,18.452 35.652,18.224 36.324,18.224 C37.356,18.224 37.992,18.752 37.992,19.916 C37.992,21.152 37.296,21.8 36.24,21.8 C35.04,21.8 34.608,21.08 34.524,20.324 L33.204,20.324 C33.252,21.716 34.332,22.916 36.312,22.916 Z" id="Path"></path>
                <path d="M43.524,22.916 C45.36,22.916 46.488,21.644 46.488,20.036 C46.488,18.404 45.372,17.276 43.764,17.276 C42.816,17.276 42.06,17.672 41.628,18.368 L41.592,18.356 L41.592,18.236 C41.592,16.808 41.988,15.368 43.536,15.368 C44.424,15.368 44.82,15.872 44.928,16.556 L46.26,16.556 C46.116,15.32 45.096,14.288 43.536,14.288 C41.484,14.288 40.296,15.896 40.296,18.62 C40.296,21.152 41.148,22.916 43.524,22.916 Z M43.488,21.836 C42.36,21.836 41.736,21.14 41.736,20.132 C41.736,19.088 42.432,18.368 43.572,18.368 C44.532,18.368 45.168,19.016 45.168,20.108 C45.168,21.152 44.58,21.836 43.488,21.836 Z" id="Shape"></path>
                <path d="M49.596,22.748 C49.596,20.096 50.94,17.024 52.824,15.452 L52.824,14.456 L46.992,14.456 L46.992,15.572 L51.408,15.572 L51.408,15.596 C49.932,16.904 48.228,20 48.228,22.748 L49.596,22.748 Z" id="Path"></path>
                <path d="M56.592,22.916 C58.404,22.916 59.784,22.088 59.784,20.408 C59.784,19.268 59.016,18.692 58.236,18.344 L58.236,18.32 C58.812,18.008 59.376,17.48 59.376,16.544 C59.376,15.116 58.212,14.288 56.592,14.288 C54.984,14.288 53.82,15.116 53.82,16.544 C53.82,17.48 54.372,18.008 54.96,18.32 L54.96,18.344 C54.168,18.692 53.412,19.268 53.412,20.408 C53.412,22.088 54.792,22.916 56.592,22.916 Z M56.592,17.828 C55.668,17.828 55.116,17.432 55.116,16.592 C55.116,15.764 55.668,15.344 56.592,15.344 C57.528,15.344 58.08,15.764 58.08,16.592 C58.08,17.432 57.528,17.828 56.592,17.828 Z M56.592,21.836 C55.44,21.836 54.756,21.284 54.756,20.336 C54.756,19.412 55.44,18.86 56.592,18.86 C57.744,18.86 58.428,19.412 58.428,20.336 C58.428,21.284 57.744,21.836 56.592,21.836 Z" id="Shape"></path>
                <path d="M63.66,22.916 C65.724,22.916 66.912,21.308 66.912,18.584 C66.912,16.052 66.06,14.288 63.684,14.288 C61.836,14.288 60.72,15.56 60.72,17.168 C60.72,18.8 61.836,19.928 63.444,19.928 C64.38,19.928 65.148,19.532 65.58,18.836 L65.616,18.848 L65.616,18.968 C65.616,20.396 65.208,21.836 63.672,21.836 C62.784,21.836 62.376,21.332 62.28,20.648 L60.936,20.648 C61.092,21.884 62.112,22.916 63.66,22.916 Z M63.636,18.836 C62.676,18.836 62.04,18.188 62.04,17.096 C62.04,16.052 62.628,15.368 63.708,15.368 C64.848,15.368 65.472,16.064 65.472,17.072 C65.472,18.116 64.764,18.836 63.636,18.836 Z" id="Shape"></path>
                <path d="M69.144,20.408 L69.444,16.496 L69.444,14.168 L68.148,14.168 L68.148,16.496 L68.46,20.408 L69.144,20.408 Z M69.456,22.748 L69.456,21.44 L68.148,21.44 L68.148,22.748 L69.456,22.748 Z" id="Shape"></path>
                <path d="M75.348,24.02 C76.224,24.02 77.04,23.912 77.796,23.504 L77.472,22.76 C76.764,23.048 76.056,23.132 75.348,23.132 C73.02,23.132 71.436,21.548 71.436,19.22 C71.436,17.036 72.972,15.08 75.492,15.08 C77.82,15.08 79.332,16.616 79.332,18.86 C79.332,20.204 78.864,20.9 78.156,20.9 C77.568,20.9 77.328,20.444 77.436,19.64 L77.82,16.628 L76.812,16.628 L76.692,17.528 L76.668,17.528 C76.452,17 75.84,16.544 75.06,16.544 C73.824,16.544 72.816,17.624 72.816,19.292 C72.816,20.852 73.704,21.752 74.82,21.752 C75.66,21.752 76.188,21.368 76.488,20.792 L76.512,20.792 C76.8,21.428 77.268,21.788 78.036,21.788 C79.044,21.788 80.256,21.056 80.256,18.836 C80.256,16.268 78.444,14.192 75.468,14.192 C72.492,14.192 70.488,16.436 70.488,19.22 C70.488,22.112 72.396,24.02 75.348,24.02 Z M75.036,20.804 C74.196,20.804 73.836,20.18 73.836,19.328 C73.836,18.284 74.328,17.492 75.264,17.492 C75.936,17.492 76.452,17.984 76.452,18.968 C76.452,19.976 75.96,20.804 75.036,20.804 Z" id="Shape"></path>
                <path d="M87.264,16.7 L86.1,16.7 L86.556,14.456 L85.572,14.456 L85.128,16.7 L83.76,16.7 L84.216,14.456 L83.244,14.456 L82.788,16.7 L81.564,16.7 L81.372,17.684 L82.596,17.684 L82.236,19.448 L81.132,19.448 L80.952,20.42 L82.044,20.42 L81.576,22.748 L82.548,22.748 L83.016,20.42 L84.384,20.42 L83.916,22.748 L84.888,22.748 L85.356,20.42 L86.664,20.42 L86.832,19.448 L85.548,19.448 L85.908,17.684 L87.072,17.684 L87.264,16.7 Z M83.208,19.448 L83.568,17.684 L84.924,17.684 L84.576,19.448 L83.208,19.448 Z" id="Shape"></path>
                <path d="M94.404,20.576 C94.404,18.92 93.264,18.5 91.62,18.02 L91.62,15.464 C92.4,15.62 92.856,16.136 92.964,17.036 L94.188,17.036 C94.092,15.488 93.072,14.576 91.62,14.396 L91.62,13.508 L90.9,13.508 L90.9,14.36 C89.244,14.42 88.212,15.308 88.212,16.664 C88.212,18.104 89.616,18.62 90.864,18.956 C90.876,18.956 90.888,18.968 90.9,18.968 L90.9,21.836 C89.796,21.692 89.196,21.056 89.1,20.012 L87.876,20.012 C87.96,21.752 89.232,22.724 90.9,22.892 L90.9,23.96 L91.62,23.96 L91.62,22.916 C93.48,22.844 94.404,21.836 94.404,20.576 Z M89.448,16.544 C89.448,15.872 90.012,15.464 90.9,15.416 L90.9,17.804 C90.036,17.528 89.448,17.252 89.448,16.544 Z M91.62,19.172 C92.664,19.496 93.168,19.82 93.168,20.612 C93.168,21.308 92.76,21.812 91.62,21.872 L91.62,19.172 Z" id="Shape"></path>
                <path d="M97.128,19.052 C98.508,19.052 99.192,17.996 99.192,16.664 C99.192,15.344 98.484,14.288 97.128,14.288 C95.736,14.288 95.052,15.344 95.052,16.664 C95.052,17.996 95.76,19.052 97.128,19.052 Z M98.028,22.748 L102.636,14.456 L101.604,14.456 L96.996,22.748 L98.028,22.748 Z M97.128,18.152 C96.456,18.152 96.144,17.576 96.144,16.664 C96.144,15.752 96.456,15.176 97.128,15.176 C97.788,15.176 98.1,15.752 98.1,16.664 C98.1,17.576 97.788,18.152 97.128,18.152 Z M102.516,22.916 C103.896,22.916 104.58,21.86 104.58,20.54 C104.58,19.208 103.884,18.152 102.516,18.152 C101.136,18.152 100.452,19.208 100.452,20.54 C100.452,21.86 101.148,22.916 102.516,22.916 Z M102.516,22.028 C101.856,22.028 101.532,21.452 101.532,20.54 C101.532,19.628 101.856,19.052 102.516,19.052 C103.176,19.052 103.5,19.628 103.5,20.54 C103.5,21.452 103.176,22.028 102.516,22.028 Z" id="Shape"></path>
                <polygon id="Path" points="106.32 17.468 107.676 15.224 107.688 15.224 109.068 17.468 110.304 17.468 108.228 14.168 107.16 14.168 105.072 17.468"></polygon>
                <path d="M116.712,21.128 C117.204,20.336 117.48,19.412 117.6,18.548 L116.472,18.548 C116.376,19.124 116.22,19.712 115.968,20.216 L114.348,18.272 C115.464,17.6 116.148,17.048 116.148,16.016 C116.148,14.924 115.38,13.988 114.012,14 C112.584,14 111.864,15.008 111.864,16.028 C111.864,16.808 112.272,17.396 112.86,18.128 C111.876,18.692 110.892,19.364 110.892,20.66 C110.892,21.944 111.852,22.916 113.556,22.916 C114.6,22.916 115.404,22.544 116.016,21.98 L116.64,22.748 L118.068,22.748 L116.712,21.128 Z M114.012,15.044 C114.636,15.044 114.996,15.512 114.996,16.1 C114.996,16.7 114.588,17.12 113.784,17.6 C113.34,17.036 113.016,16.544 113.016,16.04 C113.016,15.524 113.364,15.044 114.012,15.044 Z M113.652,21.8 C112.656,21.8 112.104,21.26 112.104,20.504 C112.104,19.808 112.608,19.304 113.412,18.812 L115.308,21.128 C114.888,21.536 114.348,21.8 113.652,21.8 Z" id="Shape"></path>
                <polygon id="Path" points="120.276 16.928 121.26 18.248 121.956 17.756 120.972 16.496 122.496 16.04 122.22 15.284 120.708 15.752 120.72 14.168 119.832 14.168 119.832 15.752 118.32 15.284 118.044 16.04 119.568 16.496 118.596 17.756 119.292 18.248"></polygon>
                <path d="M126.06,24.212 C125.28,22.76 124.668,21.116 124.668,18.944 C124.668,16.724 125.28,15.104 126.06,13.652 L125.028,13.652 C124.128,14.864 123.36,16.7 123.36,18.944 C123.36,21.116 124.128,23 125.028,24.212 L126.06,24.212 Z" id="Path"></path>
                <path d="M127.476,24.212 C128.376,23 129.144,21.152 129.144,18.908 C129.144,16.736 128.376,14.864 127.476,13.652 L126.444,13.652 C127.224,15.104 127.848,16.736 127.848,18.908 C127.848,21.128 127.224,22.76 126.444,24.212 L127.476,24.212 Z" id="Path"></path>
                <path d="M133.008,24.212 L133.008,23.096 L132.756,23.096 C132.204,23.096 131.856,22.856 131.856,21.932 L131.856,20.24 C131.856,19.544 131.568,19.184 131.112,18.944 L131.112,18.92 C131.568,18.68 131.856,18.32 131.856,17.636 L131.856,15.884 C131.856,15.008 132.204,14.768 132.756,14.768 L133.008,14.768 L133.008,13.652 L132.756,13.652 C131.28,13.652 130.56,13.964 130.56,15.98 L130.56,17.324 C130.56,17.936 130.44,18.38 129.828,18.368 L129.828,19.484 C130.44,19.484 130.56,19.94 130.56,20.54 L130.56,21.836 C130.56,23.852 131.28,24.212 132.756,24.212 L133.008,24.212 Z" id="Path"></path>
                <path d="M133.812,24.212 C135.288,24.212 136.008,23.9 136.008,21.884 L136.008,20.528 C136.008,19.916 136.128,19.472 136.728,19.484 L136.728,18.368 C136.128,18.368 136.008,17.912 136.008,17.312 L136.008,16.028 C136.008,14.012 135.288,13.652 133.812,13.652 L133.56,13.652 L133.56,14.768 L133.812,14.768 C134.364,14.768 134.712,15.008 134.712,15.932 L134.712,17.612 C134.712,18.308 135,18.668 135.444,18.908 L135.444,18.932 C135,19.172 134.712,19.532 134.712,20.216 L134.712,21.98 C134.712,22.856 134.364,23.096 133.812,23.096 L133.56,23.096 L133.56,24.212 L133.812,24.212 Z" id="Path"></path>
                <polygon id="Path" points="140.4 24.212 140.4 23.096 139.104 23.096 139.104 14.768 140.4 14.768 140.4 13.652 137.808 13.652 137.808 24.212"></polygon>
                <polygon id="Path" points="143.496 24.212 143.496 13.652 140.904 13.652 140.904 14.768 142.2 14.768 142.2 23.096 140.904 23.096 140.904 24.212"></polygon>
            </g>
            <g id="Bold" transform="translate(4.72, 107.42)" fill="#333333" fill-rule="nonzero">
                <path d="M4.284,8.58 C6.06,8.58 7.224,7.872 7.224,6.048 C7.224,4.764 6.456,4.164 5.556,4.008 L5.556,3.984 C6.264,3.744 6.888,3.216 6.888,2.16 C6.888,0.696 5.952,0 4.164,0 L0,0 L0,8.58 L4.284,8.58 Z M2.16,3.468 L2.16,1.764 L3.6,1.764 C4.2,1.764 4.68,1.908 4.68,2.616 C4.68,3.324 4.2,3.468 3.6,3.468 L2.16,3.468 Z M2.16,6.816 L2.16,4.788 L3.66,4.788 C4.56,4.788 5.016,4.992 5.016,5.796 C5.016,6.6 4.56,6.816 3.66,6.816 L2.16,6.816 Z" id="Shape"></path>
                <path d="M11.004,8.784 C13.068,8.784 14.304,7.428 14.304,5.484 C14.304,3.552 13.068,2.232 11.04,2.232 C8.976,2.232 7.74,3.588 7.74,5.52 C7.74,7.464 8.976,8.784 11.004,8.784 Z M11.028,7.344 C10.164,7.344 9.684,6.696 9.684,5.508 C9.684,4.32 10.164,3.672 11.028,3.672 C11.88,3.672 12.36,4.32 12.36,5.508 C12.36,6.696 11.88,7.344 11.028,7.344 Z" id="Shape"></path>
                <polygon id="Path" points="17.016 8.58 17.016 0 15.096 0 15.096 8.58"></polygon>
                <path d="M22.296,3.048 L22.272,3.048 C22.032,2.724 21.384,2.244 20.496,2.244 C18.864,2.244 17.82,3.492 17.82,5.508 C17.82,7.524 18.864,8.772 20.496,8.772 C21.384,8.772 22.032,8.292 22.272,7.968 L22.296,7.968 L22.296,8.58 L24.216,8.58 L24.216,0 L22.296,0 L22.296,3.048 Z M21.024,7.332 C20.244,7.332 19.788,6.708 19.788,5.508 C19.788,4.308 20.244,3.684 21.024,3.684 C21.804,3.684 22.26,4.308 22.26,5.508 C22.26,6.708 21.804,7.332 21.024,7.332 Z" id="Shape"></path>
            </g>
            <g id="AaBbCcDdEeFfGgHhIiJj" transform="translate(3.94, 124.228)" fill="#333333" fill-rule="nonzero">
                <path d="M2.316,8.772 L2.868,6.984 L5.808,6.984 L6.36,8.772 L8.724,8.772 L5.436,0.192 L3.264,0.192 L0,8.772 L2.316,8.772 Z M4.332,2.172 L4.356,2.172 L5.328,5.34 L3.36,5.34 L4.332,2.172 Z" id="Shape"></path>
                <path d="M10.716,8.964 C11.604,8.964 12.312,8.568 12.744,8.028 L12.768,8.028 C12.864,8.544 13.152,8.832 13.92,8.832 C14.196,8.832 14.592,8.796 14.976,8.724 L14.976,7.812 C14.904,7.824 14.868,7.824 14.82,7.824 C14.628,7.824 14.592,7.68 14.592,7.356 L14.592,4.98 C14.592,3.096 13.668,2.424 12,2.424 C9.924,2.424 9.06,3.432 9,4.608 L10.824,4.608 C10.884,4.008 11.208,3.72 11.916,3.72 C12.468,3.72 12.732,3.936 12.732,4.272 C12.732,4.884 11.784,4.98 11.112,5.124 C9.804,5.4 8.76,5.892 8.76,7.164 C8.76,8.256 9.516,8.964 10.716,8.964 Z M11.52,7.644 C11.028,7.644 10.728,7.428 10.728,6.96 C10.728,6.528 10.98,6.228 11.688,6.06 C12.192,5.94 12.48,5.868 12.732,5.772 L12.732,6.288 C12.732,6.996 12.288,7.644 11.52,7.644 Z" id="Shape"></path>
                <path d="M20.052,8.772 C21.828,8.772 22.992,8.064 22.992,6.24 C22.992,4.956 22.224,4.356 21.324,4.2 L21.324,4.176 C22.032,3.936 22.656,3.408 22.656,2.352 C22.656,0.888 21.72,0.192 19.932,0.192 L15.768,0.192 L15.768,8.772 L20.052,8.772 Z M17.928,3.66 L17.928,1.956 L19.368,1.956 C19.968,1.956 20.448,2.1 20.448,2.808 C20.448,3.516 19.968,3.66 19.368,3.66 L17.928,3.66 Z M17.928,7.008 L17.928,4.98 L19.428,4.98 C20.328,4.98 20.784,5.184 20.784,5.988 C20.784,6.792 20.328,7.008 19.428,7.008 L17.928,7.008 Z" id="Shape"></path>
                <path d="M27.456,2.436 C26.568,2.436 25.92,2.916 25.68,3.24 L25.656,3.24 L25.656,0.192 L23.736,0.192 L23.736,8.772 L25.656,8.772 L25.656,8.16 L25.68,8.16 C25.92,8.484 26.568,8.964 27.456,8.964 C29.088,8.964 30.132,7.716 30.132,5.7 C30.132,3.684 29.088,2.436 27.456,2.436 Z M26.928,7.524 C26.148,7.524 25.692,6.9 25.692,5.7 C25.692,4.5 26.148,3.876 26.928,3.876 C27.708,3.876 28.164,4.5 28.164,5.7 C28.164,6.9 27.708,7.524 26.928,7.524 Z" id="Shape"></path>
                <path d="M34.776,8.964 C37.14,8.964 38.436,7.524 38.628,5.556 L36.42,5.556 C36.276,6.516 35.892,7.2 34.74,7.2 C33.312,7.2 32.88,6.096 32.88,4.476 C32.88,2.868 33.312,1.764 34.74,1.764 C35.88,1.764 36.264,2.448 36.42,3.384 L38.628,3.384 C38.424,1.392 37.176,-1.42108547e-14 34.836,-1.42108547e-14 C32.124,-1.42108547e-14 30.672,1.884 30.672,4.512 C30.672,7.068 32.052,8.964 34.776,8.964 Z" id="Path"></path>
                <path d="M42.24,8.976 C44.004,8.976 45.108,7.92 45.204,6.456 L43.272,6.456 C43.212,7.02 42.984,7.536 42.228,7.536 C41.424,7.536 41.04,6.852 41.04,5.7 C41.04,4.548 41.436,3.864 42.228,3.864 C42.996,3.864 43.212,4.416 43.272,4.92 L45.204,4.92 C45.048,3.48 43.968,2.424 42.192,2.424 C40.296,2.424 39.072,3.792 39.072,5.7 C39.072,7.62 40.296,8.976 42.24,8.976 Z" id="Path"></path>
                <path d="M49.908,8.772 C52.296,8.772 53.616,7.248 53.616,4.488 C53.616,1.728 52.176,0.192 49.788,0.192 L45.984,0.192 L45.984,8.772 L49.908,8.772 Z M48.144,7.008 L48.144,1.956 L49.524,1.956 C50.868,1.956 51.408,2.928 51.408,4.488 C51.408,6.048 50.868,7.008 49.524,7.008 L48.144,7.008 Z" id="Shape"></path>
                <path d="M58.644,3.24 L58.62,3.24 C58.38,2.916 57.732,2.436 56.844,2.436 C55.212,2.436 54.168,3.684 54.168,5.7 C54.168,7.716 55.212,8.964 56.844,8.964 C57.732,8.964 58.38,8.484 58.62,8.16 L58.644,8.16 L58.644,8.772 L60.564,8.772 L60.564,0.192 L58.644,0.192 L58.644,3.24 Z M57.372,7.524 C56.592,7.524 56.136,6.9 56.136,5.7 C56.136,4.5 56.592,3.876 57.372,3.876 C58.152,3.876 58.608,4.5 58.608,5.7 C58.608,6.9 58.152,7.524 57.372,7.524 Z" id="Shape"></path>
                <polygon id="Path" points="68.256 8.772 68.256 7.008 63.84 7.008 63.84 5.244 67.584 5.244 67.584 3.48 63.84 3.48 63.84 1.956 68.184 1.956 68.184 0.192 61.68 0.192 61.68 8.772"></polygon>
                <path d="M75.012,5.928 C75.012,3.66 73.956,2.424 71.868,2.424 C69.804,2.424 68.676,3.9 68.676,5.7 C68.676,7.62 69.876,8.976 71.868,8.976 C73.596,8.976 74.616,8.16 74.964,6.912 L73.008,6.912 C72.888,7.224 72.6,7.536 71.916,7.536 C71.196,7.536 70.596,7.068 70.596,6.216 L75.012,6.216 L75.012,5.928 Z M70.608,5.028 C70.656,4.236 71.136,3.816 71.868,3.816 C72.612,3.816 73.08,4.236 73.08,5.028 L70.608,5.028 Z" id="Shape"></path>
                <polygon id="Path" points="77.988 8.772 77.988 5.604 81.432 5.604 81.432 3.84 77.988 3.84 77.988 1.956 82.212 1.956 82.212 0.192 75.828 0.192 75.828 8.772"></polygon>
                <path d="M85.68,1.524 C85.836,1.524 85.932,1.536 86.16,1.56 L86.16,0.204 C85.752,0.12 85.428,0.084 85.068,0.084 C83.748,0.084 83.172,0.696 83.172,2.196 L83.172,2.628 L82.344,2.628 L82.344,4.068 L83.172,4.068 L83.172,8.772 L85.092,8.772 L85.092,4.068 L86.16,4.068 L86.16,2.628 L85.092,2.628 L85.092,2.244 C85.092,1.584 85.344,1.524 85.68,1.524 Z" id="Path"></path>
                <path d="M90.456,8.964 C91.716,8.964 92.52,8.46 92.928,7.68 L92.952,7.68 L93.168,8.772 L94.716,8.772 L94.716,4.212 L90.852,4.212 L90.852,5.772 L92.484,5.772 C92.46,6.6 91.764,7.2 90.768,7.2 C89.268,7.2 88.776,6.096 88.776,4.476 C88.776,2.868 89.268,1.764 90.684,1.764 C91.872,1.764 92.22,2.448 92.376,3.036 L94.584,3.036 C94.38,1.392 93.072,-1.42108547e-14 90.72,-1.42108547e-14 C88.02,-1.42108547e-14 86.568,1.896 86.568,4.476 C86.568,7.068 88.02,8.964 90.456,8.964 Z" id="Path"></path>
                <path d="M99.684,3.24 L99.66,3.24 C99.42,2.916 98.88,2.436 97.98,2.436 C96.408,2.436 95.4,3.684 95.4,5.46 C95.4,7.236 96.408,8.484 97.98,8.484 C98.88,8.484 99.42,8.004 99.66,7.68 L99.684,7.68 L99.684,8.04 C99.684,9.132 99.396,9.588 98.532,9.588 C97.86,9.588 97.584,9.312 97.464,8.976 L95.52,8.976 C95.736,9.96 96.624,10.968 98.532,10.968 C100.416,10.968 101.604,10.236 101.604,8.04 L101.604,2.628 L99.684,2.628 L99.684,3.24 Z M98.508,7.044 C97.728,7.044 97.368,6.456 97.368,5.46 C97.368,4.464 97.728,3.876 98.508,3.876 C99.288,3.876 99.648,4.464 99.648,5.46 C99.648,6.456 99.288,7.044 98.508,7.044 Z" id="Shape"></path>
                <polygon id="Path" points="104.844 8.772 104.844 5.316 107.784 5.316 107.784 8.772 109.944 8.772 109.944 0.192 107.784 0.192 107.784 3.552 104.844 3.552 104.844 0.192 102.684 0.192 102.684 8.772"></polygon>
                <path d="M115.02,2.436 C113.928,2.436 113.328,2.952 113.004,3.516 L112.98,3.516 L112.98,0.192 L111.06,0.192 L111.06,8.772 L112.98,8.772 L112.98,5.22 C112.98,4.368 113.4,3.996 114.132,3.996 C114.768,3.996 115.092,4.308 115.092,5.232 L115.092,8.772 L117.012,8.772 L117.012,4.62 C117.012,3.216 116.208,2.436 115.02,2.436 Z" id="Path"></path>
                <polygon id="Path" points="120.204 8.772 120.204 0.192 118.044 0.192 118.044 8.772"></polygon>
                <path d="M123.24,1.896 L123.24,0.192 L121.32,0.192 L121.32,1.896 L123.24,1.896 Z M123.24,8.772 L123.24,2.628 L121.32,2.628 L121.32,8.772 L123.24,8.772 Z" id="Shape"></path>
                <path d="M126.9,8.964 C129.252,8.964 129.84,7.572 129.84,5.916 L129.84,0.192 L127.68,0.192 L127.68,5.916 C127.68,6.732 127.488,7.2 126.78,7.2 C126.072,7.2 125.88,6.732 125.88,5.916 L125.88,5.196 L123.96,5.196 L123.96,5.916 C123.96,7.572 124.548,8.964 126.9,8.964 Z" id="Path"></path>
                <path d="M132.828,1.896 L132.828,0.192 L130.908,0.192 L130.908,1.896 L132.828,1.896 Z M130.908,10.968 C132.312,10.968 132.828,10.092 132.828,8.592 L132.828,2.628 L130.908,2.628 L130.908,8.688 C130.908,9.348 130.656,9.42 130.284,9.42 C130.128,9.42 130.032,9.408 129.84,9.384 L129.84,10.848 C130.224,10.932 130.548,10.968 130.908,10.968 Z" id="Shape"></path>
                <polygon id="Path" points="141.732 8.772 138.264 3.948 141.492 0.192 139.176 0.192 136.104 3.852 136.104 0.192 133.944 0.192 133.944 8.772 136.104 8.772 136.104 6.456 136.992 5.424 139.212 8.772"></polygon>
                <polygon id="Path" points="148.296 8.772 145.872 4.932 148.044 2.628 146.004 2.628 143.952 4.908 143.952 0.192 142.032 0.192 142.032 8.772 143.952 8.772 143.952 6.948 144.624 6.24 146.076 8.772"></polygon>
                <polygon id="Path" points="154.752 8.772 154.752 7.008 150.936 7.008 150.936 0.192 148.776 0.192 148.776 8.772"></polygon>
                <polygon id="Path" points="157.38 8.772 157.38 0.192 155.46 0.192 155.46 8.772"></polygon>
                <polygon id="Path" points="160.536 8.772 160.536 3.432 160.56 3.432 162.156 8.772 163.668 8.772 165.264 3.432 165.288 3.432 165.288 8.772 167.328 8.772 167.328 0.192 164.688 0.192 162.924 5.664 162.9 5.664 161.136 0.192 158.496 0.192 158.496 8.772"></polygon>
                <path d="M175.98,2.436 C174.984,2.436 174.444,2.904 173.916,3.516 L173.892,3.516 C173.652,2.88 173.088,2.436 172.284,2.436 C171.36,2.436 170.688,2.952 170.364,3.516 L170.34,3.516 L170.34,2.628 L168.42,2.628 L168.42,8.772 L170.34,8.772 L170.34,5.22 C170.34,4.368 170.736,3.996 171.336,3.996 C172.02,3.996 172.212,4.308 172.212,5.232 L172.212,8.772 L174.132,8.772 L174.132,5.22 C174.132,4.368 174.516,3.996 175.128,3.996 C175.812,3.996 176.004,4.308 176.004,5.232 L176.004,8.772 L177.948,8.772 L177.948,4.62 C177.948,3.216 177.216,2.436 175.98,2.436 Z" id="Path"></path>
                <polygon id="Path" points="181.14 8.772 181.14 3.672 181.164 3.672 184.164 8.772 186.324 8.772 186.324 0.192 184.164 0.192 184.164 5.292 184.14 5.292 181.14 0.192 178.98 0.192 178.98 8.772"></polygon>
                <path d="M191.376,2.436 C190.284,2.436 189.684,2.952 189.36,3.516 L189.336,3.516 L189.336,2.628 L187.416,2.628 L187.416,8.772 L189.336,8.772 L189.336,5.22 C189.336,4.368 189.756,3.996 190.488,3.996 C191.124,3.996 191.448,4.308 191.448,5.232 L191.448,8.772 L193.368,8.772 L193.368,4.62 C193.368,3.216 192.564,2.436 191.376,2.436 Z" id="Path"></path>
                <path d="M198.336,8.964 C201.036,8.964 202.584,7.068 202.584,4.476 C202.584,1.896 201.036,-1.42108547e-14 198.336,-1.42108547e-14 C195.612,-1.42108547e-14 194.088,1.896 194.088,4.476 C194.088,7.068 195.612,8.964 198.336,8.964 Z M198.336,7.2 C196.764,7.2 196.296,5.976 196.296,4.476 C196.296,2.988 196.764,1.764 198.336,1.764 C199.896,1.764 200.376,2.988 200.376,4.476 C200.376,5.976 199.896,7.2 198.336,7.2 Z" id="Shape"></path>
                <path d="M206.364,8.976 C208.428,8.976 209.664,7.62 209.664,5.676 C209.664,3.744 208.428,2.424 206.4,2.424 C204.336,2.424 203.1,3.78 203.1,5.712 C203.1,7.656 204.336,8.976 206.364,8.976 Z M206.388,7.536 C205.524,7.536 205.044,6.888 205.044,5.7 C205.044,4.512 205.524,3.864 206.388,3.864 C207.24,3.864 207.72,4.512 207.72,5.7 C207.72,6.888 207.24,7.536 206.388,7.536 Z" id="Shape"></path>
                <path d="M212.616,8.772 L212.616,5.664 L214.62,5.664 C216.408,5.664 217.524,4.728 217.524,2.928 C217.524,1.128 216.408,0.192 214.62,0.192 L210.456,0.192 L210.456,8.772 L212.616,8.772 Z M212.616,3.9 L212.616,1.956 L214.116,1.956 C214.86,1.956 215.316,2.208 215.316,2.928 C215.316,3.648 214.86,3.9 214.116,3.9 L212.616,3.9 Z" id="Shape"></path>
                <path d="M221.856,2.436 C220.968,2.436 220.32,2.916 220.08,3.24 L220.056,3.24 L220.056,2.628 L218.136,2.628 L218.136,10.896 L220.056,10.896 L220.056,8.16 L220.08,8.16 C220.32,8.484 220.968,8.964 221.856,8.964 C223.488,8.964 224.532,7.716 224.532,5.7 C224.532,3.684 223.488,2.436 221.856,2.436 Z M221.328,7.524 C220.548,7.524 220.092,6.9 220.092,5.7 C220.092,4.5 220.548,3.876 221.328,3.876 C222.108,3.876 222.564,4.5 222.564,5.7 C222.564,6.9 222.108,7.524 221.328,7.524 Z" id="Shape"></path>
                <path d="M233.568,4.476 C233.568,1.896 232.02,-1.42108547e-14 229.32,-1.42108547e-14 C226.596,-1.42108547e-14 225.072,1.896 225.072,4.476 C225.072,7.068 226.596,8.964 229.32,8.964 C230.04,8.964 230.688,8.832 231.24,8.58 L232.32,9.672 L233.364,8.592 L232.464,7.68 C233.184,6.888 233.568,5.772 233.568,4.476 Z M229.32,7.2 C227.748,7.2 227.28,5.976 227.28,4.476 C227.28,2.988 227.748,1.764 229.32,1.764 C230.88,1.764 231.36,2.988 231.36,4.476 C231.36,5.136 231.264,5.748 231.024,6.228 L229.848,5.04 L228.804,6.12 L229.824,7.152 C229.668,7.188 229.5,7.2 229.32,7.2 Z" id="Shape"></path>
                <path d="M238.572,3.24 L238.548,3.24 C238.308,2.916 237.66,2.436 236.772,2.436 C235.14,2.436 234.096,3.684 234.096,5.7 C234.096,7.716 235.14,8.964 236.772,8.964 C237.66,8.964 238.308,8.484 238.548,8.16 L238.572,8.16 L238.572,10.896 L240.492,10.896 L240.492,2.628 L238.572,2.628 L238.572,3.24 Z M237.3,7.524 C236.52,7.524 236.064,6.9 236.064,5.7 C236.064,4.5 236.52,3.876 237.3,3.876 C238.08,3.876 238.536,4.5 238.536,5.7 C238.536,6.9 238.08,7.524 237.3,7.524 Z" id="Shape"></path>
                <path d="M243.732,8.772 L243.732,5.784 L245.076,5.784 C246.912,5.784 246.132,8.412 246.552,8.772 L248.796,8.772 L248.796,8.652 C248.304,8.508 249.084,5.184 246.936,4.812 L246.936,4.788 C248.004,4.548 248.676,3.84 248.676,2.64 C248.676,1.08 247.524,0.192 245.616,0.192 L241.572,0.192 L241.572,8.772 L243.732,8.772 Z M243.732,4.02 L243.732,1.956 L245.196,1.956 C246.06,1.956 246.516,2.268 246.516,2.988 C246.516,3.708 246.06,4.02 245.196,4.02 L243.732,4.02 Z" id="Shape"></path>
                <path d="M252.972,2.58 C252.3,2.58 251.772,2.988 251.472,3.636 L251.448,3.636 L251.448,2.628 L249.528,2.628 L249.528,8.772 L251.448,8.772 L251.448,5.916 C251.448,4.812 252.24,4.272 253.104,4.272 C253.236,4.272 253.344,4.284 253.5,4.308 L253.5,2.628 C253.284,2.58 253.14,2.58 252.972,2.58 Z" id="Path"></path>
                <path d="M257.628,8.964 C259.776,8.964 261.024,7.896 261.024,6.252 C261.024,4.476 259.356,4.02 257.736,3.54 C256.644,3.216 256.164,3.024 256.164,2.448 C256.164,1.956 256.62,1.74 257.268,1.74 C258.096,1.74 258.624,2.136 258.72,2.796 L260.904,2.796 C260.844,1.056 259.272,-1.42108547e-14 257.268,-1.42108547e-14 C255.42,-1.42108547e-14 253.956,0.732 253.956,2.604 C253.956,4.14 255.288,4.716 256.776,5.172 C257.964,5.532 258.816,5.724 258.816,6.456 C258.816,6.9 258.408,7.224 257.604,7.224 C256.632,7.224 255.876,6.852 255.876,5.856 L253.692,5.856 C253.692,7.824 255.384,8.964 257.628,8.964 Z" id="Path"></path>
                <path d="M264.492,8.964 C266.268,8.964 267.24,8.256 267.24,6.972 C267.24,5.544 266.04,5.184 264.828,4.896 C263.904,4.68 263.544,4.656 263.544,4.248 C263.544,3.948 263.772,3.756 264.3,3.756 C264.936,3.756 265.2,4.02 265.26,4.512 L267.06,4.512 C267,3.432 266.232,2.436 264.264,2.436 C262.536,2.436 261.576,3.216 261.576,4.368 C261.576,5.616 262.692,6.048 263.772,6.3 C264.66,6.504 265.272,6.564 265.272,7.116 C265.272,7.464 265.02,7.644 264.456,7.644 C263.724,7.644 263.316,7.344 263.256,6.732 L261.456,6.732 C261.504,7.932 262.344,8.964 264.492,8.964 Z" id="Path"></path>
                <polygon id="Path" points="270.984 8.772 270.984 1.956 273.468 1.956 273.468 0.192 266.328 0.192 266.328 1.956 268.824 1.956 268.824 8.772"></polygon>
                <path d="M276.708,7.452 C276.336,7.452 276.084,7.392 276.084,6.732 L276.084,4.068 L277.152,4.068 L277.152,2.628 L276.084,2.628 L276.084,0.912 L274.164,0.912 L274.164,2.628 L273.312,2.628 L273.312,4.068 L274.164,4.068 L274.164,6.78 C274.164,8.28 274.74,8.892 276.084,8.892 C276.468,8.892 276.816,8.856 277.224,8.76 L277.224,7.404 C276.996,7.44 276.888,7.452 276.708,7.452 Z" id="Path"></path>
                <path d="M281.556,8.964 C284.148,8.964 285.144,7.812 285.144,5.676 L285.144,0.192 L282.984,0.192 L282.984,5.676 C282.984,6.792 282.504,7.2 281.556,7.2 C280.608,7.2 280.128,6.792 280.128,5.676 L280.128,0.192 L277.968,0.192 L277.968,5.676 C277.968,7.812 278.964,8.964 281.556,8.964 Z" id="Path"></path>
                <path d="M290.136,6.18 C290.136,7.032 289.716,7.404 288.984,7.404 C288.348,7.404 288.024,7.092 288.024,6.168 L288.024,2.628 L286.104,2.628 L286.104,6.78 C286.104,8.184 286.908,8.964 288.096,8.964 C289.188,8.964 289.788,8.448 290.112,7.884 L290.136,7.884 L290.136,8.772 L292.056,8.772 L292.056,2.628 L290.136,2.628 L290.136,6.18 Z" id="Path"></path>
                <polygon id="Path" points="297.144 8.772 299.928 0.192 297.648 0.192 296.016 6.204 295.992 6.204 294.372 0.192 292.008 0.192 294.864 8.772"></polygon>
                <polygon id="Path" points="303.852 8.772 305.976 2.628 304.08 2.628 302.832 6.684 302.808 6.684 301.56 2.628 299.616 2.628 301.74 8.772"></polygon>
                <polygon id="Path" points="310.152 8.772 311.436 3.42 311.46 3.42 312.744 8.772 314.904 8.772 317.088 0.192 314.928 0.192 313.824 6.012 313.8 6.012 312.468 0.192 310.428 0.192 309.096 6.012 309.072 6.012 307.968 0.192 305.808 0.192 307.992 8.772"></polygon>
                <polygon id="Path" points="320.46 8.772 321.648 4.884 321.672 4.884 322.86 8.772 324.66 8.772 326.376 2.628 324.516 2.628 323.592 6.372 323.556 6.372 322.524 2.628 320.844 2.628 319.812 6.372 319.788 6.372 318.864 2.628 316.944 2.628 318.66 8.772"></polygon>
                <polygon id="Path" points="328.032 8.772 329.724 5.988 329.748 5.988 331.452 8.772 333.852 8.772 331.008 4.368 333.612 0.192 331.332 0.192 329.748 2.808 329.724 2.808 328.152 0.192 325.872 0.192 328.476 4.392 325.632 8.772"></polygon>
                <polygon id="Path" points="335.748 8.772 336.852 6.876 336.876 6.876 337.98 8.772 340.14 8.772 338.028 5.64 339.9 2.628 337.86 2.628 336.876 4.404 336.852 4.404 335.868 2.628 333.828 2.628 335.7 5.64 333.588 8.772"></polygon>
                <polygon id="Path" points="344.292 8.772 344.292 5.604 347.184 0.192 344.904 0.192 343.224 3.84 343.2 3.84 341.532 0.192 339.204 0.192 342.132 5.604 342.132 8.772"></polygon>
                <path d="M348.384,10.896 C349.74,10.896 350.34,10.188 350.856,8.784 L353.1,2.628 L351.204,2.628 L349.884,6.672 L349.86,6.672 L348.42,2.628 L346.44,2.628 L348.888,8.688 C348.72,9.336 348.18,9.348 347.808,9.348 C347.592,9.348 347.436,9.336 347.232,9.312 L347.232,10.776 C347.64,10.86 347.964,10.896 348.384,10.896 Z" id="Path"></path>
                <polygon id="Path" points="359.556 8.772 359.556 7.008 355.512 7.008 355.512 6.984 359.436 1.956 359.436 0.192 353.112 0.192 353.112 1.956 356.796 1.956 356.796 1.98 352.872 7.008 352.872 8.772"></polygon>
                <polygon id="Path" points="365.58 8.772 365.58 7.332 362.472 7.332 362.472 7.308 365.46 4.008 365.46 2.628 360.312 2.628 360.312 4.068 363.06 4.068 363.06 4.092 360.072 7.392 360.072 8.772"></polygon>
                <path d="M4.14,22.964 C6.624,22.964 7.776,21.104 7.776,18.632 C7.776,16.16 6.624,14.288 4.14,14.288 C1.656,14.288 0.492,16.16 0.492,18.632 C0.492,21.104 1.656,22.964 4.14,22.964 Z M4.14,21.284 C2.952,21.284 2.616,20.132 2.616,18.632 C2.616,17.132 2.952,15.968 4.14,15.968 C5.328,15.968 5.652,17.132 5.652,18.632 C5.652,20.132 5.328,21.284 4.14,21.284 Z" id="Shape"></path>
                <path d="M10.128,22.772 L12.168,22.772 L12.168,14.48 L10.488,14.48 C10.488,15.5 9.54,15.956 8.376,15.956 L8.376,17.552 C9.108,17.552 9.804,17.456 10.128,17.204 L10.128,22.772 Z" id="Path"></path>
                <path d="M19.632,22.772 L19.632,21.128 L16.116,21.128 L16.116,21.104 C16.392,20.828 16.752,20.552 17.148,20.264 C18.288,19.436 19.632,18.428 19.632,16.808 C19.632,15.224 18.432,14.288 16.644,14.288 C14.4,14.288 13.368,15.56 13.368,17.504 L15.336,17.504 C15.336,16.364 15.804,15.932 16.584,15.932 C17.232,15.932 17.544,16.316 17.544,16.952 C17.544,17.708 16.884,18.26 15.984,18.932 C14.184,20.276 13.248,21.02 13.248,22.772 L19.632,22.772 Z" id="Path"></path>
                <path d="M23.916,22.964 C25.896,22.964 27.168,22.076 27.168,20.396 C27.168,19.436 26.748,18.728 25.728,18.404 L25.728,18.38 C26.4,18.032 26.928,17.468 26.928,16.568 C26.928,15.104 25.548,14.288 23.868,14.288 C21.876,14.288 20.664,15.44 20.664,17.024 L22.632,17.024 C22.632,16.232 23.172,15.932 23.82,15.932 C24.492,15.932 24.84,16.244 24.84,16.796 C24.84,17.504 24.288,17.816 23.556,17.816 L23.184,17.816 L23.184,19.22 L23.604,19.22 C24.552,19.22 25.08,19.52 25.08,20.312 C25.08,20.948 24.732,21.32 23.844,21.32 C22.788,21.32 22.392,20.804 22.392,19.844 L20.424,19.844 C20.424,21.836 21.696,22.964 23.916,22.964 Z" id="Path"></path>
                <path d="M33.756,22.772 L33.756,21.02 L34.98,21.02 L34.98,19.376 L33.756,19.376 L33.756,14.48 L31.716,14.48 L27.96,19.016 L27.96,21.02 L31.716,21.02 L31.716,22.772 L33.756,22.772 Z M31.716,16.7 L31.716,19.376 L29.46,19.376 L31.716,16.7 Z" id="Shape"></path>
                <path d="M39.084,22.964 C40.92,22.964 42.312,21.956 42.312,19.964 C42.312,18.188 41.208,17.144 39.564,17.144 C38.808,17.144 38.244,17.372 37.788,17.732 L37.788,17.708 L38.1,16.124 L41.952,16.124 L41.952,14.48 L36.708,14.48 L35.748,19.148 L37.668,19.148 C38.004,18.728 38.484,18.548 38.928,18.548 C39.804,18.548 40.224,19.064 40.224,19.94 C40.224,20.852 39.732,21.32 38.964,21.32 C38.1,21.32 37.656,20.804 37.596,20.204 L35.628,20.204 C35.688,21.836 36.84,22.964 39.084,22.964 Z" id="Path"></path>
                <path d="M46.788,22.964 C48.78,22.964 50.04,21.764 50.04,19.928 C50.04,18.344 48.9,17.12 47.184,17.12 C46.272,17.12 45.684,17.432 45.252,17.84 L45.204,17.804 L45.204,17.672 C45.204,16.592 45.648,15.812 46.68,15.812 C47.436,15.812 47.676,16.292 47.736,16.58 L49.8,16.58 C49.536,15.248 48.324,14.288 46.716,14.288 C44.592,14.288 43.164,15.74 43.164,18.74 C43.164,20.9 44.052,22.964 46.788,22.964 Z M46.668,21.44 C45.768,21.44 45.252,20.84 45.252,20.036 C45.252,19.244 45.768,18.644 46.668,18.644 C47.556,18.644 48.072,19.244 48.072,20.036 C48.072,20.84 47.556,21.44 46.668,21.44 Z" id="Shape"></path>
                <path d="M53.988,22.772 C53.988,20.216 54.708,17.528 56.592,16.004 L56.592,14.48 L50.508,14.48 L50.508,16.124 L54.432,16.124 L54.432,16.148 C52.956,17.408 51.828,20.12 51.828,22.772 L53.988,22.772 Z" id="Path"></path>
                <path d="M60.612,22.964 C62.508,22.964 64.044,22.1 64.044,20.396 C64.044,19.28 63.264,18.656 62.484,18.308 L62.484,18.284 C63.06,17.972 63.684,17.468 63.684,16.532 C63.684,15.104 62.316,14.288 60.612,14.288 C58.908,14.288 57.54,15.104 57.54,16.532 C57.54,17.468 58.152,17.972 58.74,18.284 L58.74,18.308 C57.948,18.656 57.18,19.28 57.18,20.396 C57.18,22.1 58.716,22.964 60.612,22.964 Z M60.612,17.744 C59.772,17.744 59.388,17.276 59.388,16.712 C59.388,16.172 59.772,15.692 60.612,15.692 C61.452,15.692 61.836,16.172 61.836,16.712 C61.836,17.276 61.452,17.744 60.612,17.744 Z M60.612,21.44 C59.736,21.44 59.268,20.876 59.268,20.204 C59.268,19.556 59.736,18.992 60.612,18.992 C61.488,18.992 61.956,19.556 61.956,20.204 C61.956,20.876 61.488,21.44 60.612,21.44 Z" id="Shape"></path>
                <path d="M68.148,22.964 C70.272,22.964 71.7,21.512 71.7,18.512 C71.7,16.352 70.812,14.288 68.076,14.288 C66.084,14.288 64.824,15.488 64.824,17.324 C64.824,18.908 65.964,20.132 67.68,20.132 C68.592,20.132 69.18,19.82 69.612,19.412 L69.66,19.448 L69.66,19.58 C69.66,20.66 69.216,21.44 68.184,21.44 C67.428,21.44 67.188,20.96 67.128,20.672 L65.064,20.672 C65.328,22.004 66.54,22.964 68.148,22.964 Z M68.196,18.608 C67.308,18.608 66.792,18.008 66.792,17.216 C66.792,16.412 67.308,15.812 68.196,15.812 C69.096,15.812 69.612,16.412 69.612,17.216 C69.612,18.008 69.096,18.608 68.196,18.608 Z" id="Shape"></path>
                <path d="M74.136,19.964 L74.676,16.064 L74.676,14.192 L72.636,14.192 L72.636,16.064 L73.176,19.964 L74.136,19.964 Z M74.58,22.772 L74.58,20.948 L72.756,20.948 L72.756,22.772 L74.58,22.772 Z" id="Shape"></path>
                <path d="M80.64,24.068 C81.576,24.068 82.392,23.912 83.052,23.552 L82.668,22.604 C81.936,22.892 81.24,22.988 80.616,22.988 C78.144,22.988 76.752,21.476 76.752,19.268 C76.752,16.904 78.348,15.272 80.82,15.272 C83.028,15.272 84.384,16.592 84.384,18.716 C84.384,19.976 83.952,20.696 83.304,20.696 C82.86,20.696 82.644,20.444 82.74,19.664 L83.124,16.652 L81.564,16.652 L81.48,17.372 L81.456,17.372 C81.24,16.928 80.868,16.568 80.148,16.568 C78.924,16.568 77.94,17.588 77.94,19.328 C77.94,20.948 78.804,21.776 79.908,21.776 C80.688,21.776 81.24,21.296 81.408,20.684 L81.432,20.684 C81.636,21.392 82.236,21.776 83.028,21.776 C84.432,21.776 85.584,20.78 85.584,18.728 C85.584,16.304 83.892,14.192 80.748,14.192 C77.604,14.192 75.456,16.316 75.456,19.268 C75.456,21.908 77.172,24.068 80.64,24.068 Z M80.316,20.456 C79.716,20.456 79.56,19.988 79.56,19.364 C79.56,18.44 79.944,17.888 80.532,17.888 C81.036,17.888 81.24,18.272 81.24,19.016 C81.24,19.772 80.976,20.456 80.316,20.456 Z" id="Shape"></path>
                <path d="M92.7,16.628 L91.824,16.628 L92.28,14.48 L90.84,14.48 L90.384,16.628 L89.304,16.628 L89.76,14.48 L88.32,14.48 L87.864,16.628 L86.952,16.628 L86.64,18.068 L87.552,18.068 L87.24,19.544 L86.328,19.544 L86.028,20.984 L86.928,20.984 L86.544,22.772 L87.984,22.772 L88.368,20.984 L89.448,20.984 L89.064,22.772 L90.504,22.772 L90.888,20.984 L91.776,20.984 L92.076,19.544 L91.2,19.544 L91.512,18.068 L92.388,18.068 L92.7,16.628 Z M88.68,19.544 L88.992,18.068 L90.072,18.068 L89.76,19.544 L88.68,19.544 Z" id="Shape"></path>
                <path d="M100.152,20.42 C100.152,18.716 98.724,18.224 97.116,17.756 L97.116,15.968 C97.704,16.1 98.028,16.46 98.112,17.048 L100.032,17.048 C99.96,15.56 98.928,14.528 97.116,14.372 L97.116,13.532 L96.312,13.532 L96.312,14.372 C94.56,14.48 93.456,15.404 93.456,16.856 C93.456,18.308 94.572,18.884 96.072,19.328 L96.312,19.4 L96.312,21.344 C95.676,21.236 95.148,20.888 95.124,20.06 L93.204,20.06 C93.204,21.752 94.44,22.76 96.312,22.916 L96.312,23.972 L97.116,23.972 L97.116,22.94 C99.072,22.856 100.152,21.884 100.152,20.42 Z M95.388,16.7 C95.388,16.22 95.772,15.992 96.312,15.932 L96.312,17.504 C95.664,17.3 95.388,17.12 95.388,16.7 Z M97.116,19.628 C97.752,19.832 98.22,20.084 98.22,20.6 C98.22,21.044 97.884,21.344 97.116,21.38 L97.116,19.628 Z" id="Shape"></path>
                <path d="M103.128,19.1 C104.604,19.1 105.528,18.176 105.528,16.7 C105.528,15.224 104.604,14.288 103.128,14.288 C101.652,14.288 100.716,15.224 100.716,16.7 C100.716,18.176 101.652,19.1 103.128,19.1 Z M104.28,22.772 L108.876,14.48 L107.592,14.48 L102.996,22.772 L104.28,22.772 Z M103.128,17.9 C102.696,17.9 102.516,17.54 102.516,16.7 C102.516,15.848 102.696,15.488 103.128,15.488 C103.548,15.488 103.728,15.848 103.728,16.7 C103.728,17.54 103.548,17.9 103.128,17.9 Z M108.744,22.964 C110.22,22.964 111.156,22.028 111.156,20.552 C111.156,19.076 110.22,18.152 108.744,18.152 C107.268,18.152 106.344,19.076 106.344,20.552 C106.344,22.028 107.268,22.964 108.744,22.964 Z M108.744,21.764 C108.324,21.764 108.144,21.404 108.144,20.552 C108.144,19.712 108.324,19.352 108.744,19.352 C109.176,19.352 109.356,19.712 109.356,20.552 C109.356,21.404 109.176,21.764 108.744,21.764 Z" id="Shape"></path>
                <polygon id="Path" points="113.328 17.492 114.24 15.872 114.252 15.872 115.176 17.492 116.976 17.492 114.972 14.192 113.532 14.192 111.528 17.492"></polygon>
                <path d="M123.96,21.068 C124.5,20.288 124.824,19.352 124.944,18.476 L123.264,18.476 C123.18,18.884 123.036,19.352 122.808,19.784 L121.56,18.404 C122.796,17.756 123.48,17.156 123.48,16.16 C123.48,14.936 122.472,13.988 120.9,14 C119.232,14.012 118.32,15.092 118.32,16.196 C118.32,16.952 118.74,17.516 119.34,18.248 C118.332,18.752 117.408,19.352 117.408,20.636 C117.408,21.968 118.416,22.964 120.3,22.964 C121.248,22.964 122.04,22.712 122.688,22.292 L123.084,22.772 L125.484,22.772 L123.96,21.068 Z M120.9,15.572 C121.452,15.572 121.68,15.896 121.68,16.268 C121.68,16.712 121.308,17.12 120.744,17.48 C120.348,17.012 120.12,16.652 120.12,16.292 C120.12,15.896 120.372,15.572 120.9,15.572 Z M120.648,21.32 C119.808,21.32 119.448,20.84 119.448,20.264 C119.448,19.94 119.556,19.568 120.108,19.172 L121.668,21.056 C121.368,21.224 121.032,21.32 120.648,21.32 Z" id="Shape"></path>
                <polygon id="Path" points="127.512 17.264 128.304 18.476 129.276 17.768 128.424 16.616 129.768 16.268 129.396 15.128 128.124 15.656 128.124 14.192 126.924 14.192 126.924 15.656 125.64 15.128 125.268 16.268 126.6 16.616 125.748 17.768 126.72 18.476"></polygon>
                <path d="M133.692,24.416 C133.056,22.964 132.528,21.14 132.528,18.968 C132.528,16.748 133.056,14.984 133.692,13.532 L132.012,13.532 C131.256,14.744 130.488,16.724 130.488,18.968 C130.488,21.14 131.256,23.204 132.012,24.416 L133.692,24.416 Z" id="Path"></path>
                <path d="M135.708,24.416 C136.464,23.204 137.232,21.224 137.232,18.98 C137.232,16.808 136.464,14.744 135.708,13.532 L134.028,13.532 C134.664,14.984 135.192,16.808 135.192,18.98 C135.192,21.2 134.664,22.964 134.028,24.416 L135.708,24.416 Z" id="Path"></path>
                <path d="M141.912,24.416 L141.912,22.772 L141.588,22.772 C141.12,22.772 140.688,22.532 140.688,21.608 L140.688,20.288 C140.688,19.592 140.436,19.232 139.848,18.992 L139.848,18.968 C140.436,18.728 140.688,18.368 140.688,17.684 L140.688,16.292 C140.688,15.416 141.12,15.176 141.588,15.176 L141.912,15.176 L141.912,13.532 L141.588,13.532 C139.692,13.532 138.648,13.844 138.648,15.86 L138.648,17.372 C138.648,17.984 138.492,18.164 137.832,18.152 L137.832,19.808 C138.492,19.808 138.648,19.988 138.648,20.576 L138.648,22.04 C138.648,24.056 139.692,24.416 141.588,24.416 L141.912,24.416 Z" id="Path"></path>
                <path d="M142.788,24.416 C144.684,24.416 145.728,24.104 145.728,22.088 L145.728,20.576 C145.728,19.964 145.884,19.784 146.544,19.796 L146.544,18.14 C145.884,18.14 145.728,17.96 145.728,17.372 L145.728,15.908 C145.728,13.892 144.684,13.532 142.788,13.532 L142.464,13.532 L142.464,15.176 L142.788,15.176 C143.256,15.176 143.688,15.416 143.688,16.34 L143.688,17.66 C143.688,18.356 143.94,18.716 144.528,18.956 L144.528,18.98 C143.94,19.22 143.688,19.58 143.688,20.264 L143.688,21.656 C143.688,22.532 143.256,22.772 142.788,22.772 L142.464,22.772 L142.464,24.416 L142.788,24.416 Z" id="Path"></path>
                <polygon id="Path" points="151.152 24.416 151.152 22.772 149.508 22.772 149.508 15.176 151.152 15.176 151.152 13.532 147.468 13.532 147.468 24.416"></polygon>
                <polygon id="Path" points="155.268 24.416 155.268 13.532 151.584 13.532 151.584 15.176 153.228 15.176 153.228 22.772 151.584 22.772 151.584 24.416"></polygon>
            </g>
        </g>
    </g>
</svg>