<?xml version="1.0" encoding="UTF-8"?>
<svg width="368px" height="207px" viewBox="0 0 368 207" version="1.1" xmlns="http://www.w3.org/2000/svg" xmlns:xlink="http://www.w3.org/1999/xlink">
    <title>Group 3</title>
    <g id="Flats" stroke="none" stroke-width="1" fill="none" fill-rule="evenodd">
        <g id="FLATS-V4-//-PROJECTS" transform="translate(-31, -625)">
            <g id="Group-3" transform="translate(31, 625)">
                <rect id="Rectangle" fill="#2E2E2E" x="0" y="0" width="368" height="207"></rect>
                <g id="themanor" transform="translate(72, 90)" fill="#FFFFFF" fill-rule="nonzero">
                    <polygon id="Path" points="14.1231471 5.37039204 14.1231471 26 7.8718358 26 7.8718358 5.37039204 0 5.37039204 0 0 22 0 22 5.36532085 14.1231471 5.36532085"></polygon>
                    <polygon id="Path" points="40.750114 26 40.750114 15.2287888 31.249886 15.2287888 31.249886 26 25 26 25 0 31.249886 0 31.249886 9.85839672 40.750114 9.85839672 40.750114 0 47 0 47 26 40.750114 26"></polygon>
                    <polygon id="Path" points="59.4297363 5.29432417 59.4297363 10.2235225 70.8844795 10.2235225 70.8844795 15.44685 59.4297363 15.44685 59.4297363 20.7056758 72 20.7056758 72 26 53 26 53 0 71.7056265 0 71.7056265 5.29432417 59.4349008 5.29432417"></polygon>
                    <path d="M101.138109,26 L101.138109,13.2915935 C101.138109,10.076458 101.208132,6.8663936 101.353178,3.68675639 L101.283156,3.68675639 C100.562924,6.82582407 99.6976444,10.0409596 98.8323653,13.144529 L95.1961923,26 L87.8138109,26 L84.1776379,13.144529 C83.3123588,10.0409596 82.4470797,6.82582407 81.7268474,3.68675639 L81.6568248,3.68675639 C81.8018716,6.86132241 81.8718942,10.076458 81.8718942,13.2915935 L81.8718942,26 L76,26 L76,0 L85.9782188,0 L89.2542756,11.5369612 C90.1195547,14.7115272 90.8747983,17.9266628 91.4849952,21.1063 L91.5550177,21.1063 C92.1302033,17.9266628 92.8854469,14.7165984 93.750726,11.5369612 L97.0617941,0 L107,0 L107,26 L101.128106,26 L101.138109,26 Z" id="Path"></path>
                    <path d="M117.310479,20.4876146 L115.634203,26 L109,26 L117.857421,0 L126.137515,0 L135,26 L128.360732,26 L126.719907,20.4876146 L117.310479,20.4876146 L117.310479,20.4876146 Z M124.638489,13.5502243 C123.691469,10.446655 122.779899,7.23151941 122.015193,4.09245173 L121.944293,4.09245173 C121.179587,7.23151941 120.303467,10.446655 119.391897,13.5502243 L118.880405,15.3048566 L125.190495,15.3048566 L124.643553,13.5502243 L124.638489,13.5502243 Z" id="Shape"></path>
                    <path d="M151.767258,26 L147.186792,15.7409791 C145.673648,12.3838502 144.196409,8.83908719 142.903826,5.3348937 L142.832015,5.3348937 C143.01667,8.98615175 143.129515,12.6374098 143.129515,16.2886678 L143.129515,26 L137,26 L137,0 L146.196837,0 L150.813208,10.2590209 C152.290447,13.6161498 153.767685,17.1609128 155.096174,20.6651063 L155.167985,20.6651063 C154.947425,17.0138483 154.870485,13.3625902 154.870485,9.71133216 L154.870485,0 L161,0 L161,26 L151.767258,26 Z" id="Path"></path>
                    <path d="M190,13.5 C190,21.8096305 185.212659,27 177.517638,27 C169.822616,27 165,21.8096305 165,13.5 C165,5.19036954 169.787341,0 177.517638,0 C185.247934,0 190,5.19036954 190,13.5 Z M171.566216,13.5 C171.566216,18.5795073 173.743197,21.5576708 177.517638,21.5576708 C181.292078,21.5576708 183.433784,18.5845465 183.433784,13.5 C183.433784,8.41545353 181.256803,5.44736842 177.517638,5.44736842 C173.778472,5.44736842 171.566216,8.42049272 171.566216,13.5 Z" id="Shape"></path>
                    <path d="M203.627032,0 C210.325128,0 213.267998,2.70294519 213.267998,7.41408231 C213.267998,10.5886483 211.428704,12.8909694 208.45007,13.7682855 L208.45007,13.8392822 C210.325128,14.4985372 211.244775,15.7004096 212.460752,19.0626097 L215,26 L208.158848,26 L206.171389,20.1224888 C205.251742,17.4550419 204.219693,16.5067291 201.757083,16.5067291 L199.366001,16.5067291 L199.366001,26 L193,26 L193,0 L203.632141,0 L203.627032,0 Z M199.360892,11.7195241 L202.85555,11.7195241 C205.798421,11.7195241 206.973525,10.4060854 206.973525,8.2153306 C206.973525,5.91300956 205.389689,4.89370002 202.594984,4.89370002 L199.355783,4.89370002 L199.355783,11.7245953 L199.360892,11.7195241 Z" id="Shape"></path>
                    <polygon id="Path" points="218 27 218 20 224 20 224 27"></polygon>
                </g>
            </g>
        </g>
    </g>
</svg>