<?xml version="1.0" encoding="UTF-8"?>
<svg id="Layer_2" data-name="Layer 2" xmlns="http://www.w3.org/2000/svg" viewBox="0 0 735.68 182.23">
  <defs>
    <style>
      .cls-1 {
        fill: #fff;
      }
    </style>
  </defs>
  <g id="Layer_1-2" data-name="Layer 1">
    <g>
      <path class="cls-1" d="m0,109.69C0,49.7,45.68,0,111.95,0c50.95,0,77.81,32.38,76.31,72.29h-52.46c-.5-13.3-11.8-25.85-32.38-25.85-29.12,0-52.46,24.6-52.46,54.72,0,20.58,13.05,34.64,35.89,34.64,21.08,0,37.4-12.3,44.18-25.1h52.46c-11.04,39.66-49.7,71.54-105.17,71.54C29.37,182.23,0,152.11,0,109.69Z"/>
      <path class="cls-1" d="m202.55,108.69C202.55,48.95,250,0,315.76,0c47.94,0,79.07,30.12,79.07,73.8,0,59.24-47.44,108.43-112.95,108.43-49.45,0-79.32-30.62-79.32-73.54Zm141.32-26.61c0-20.33-13.81-35.64-36.65-35.64-29.12,0-53.72,23.59-53.72,53.97,0,20.58,13.81,35.39,37.15,35.39,28.61,0,53.21-23.34,53.21-53.71Z"/>
      <path class="cls-1" d="m414.65,3.26h53.97l14.31,108.44h2.26L539.65,3.26h52.71l-97.39,175.71h-48.19L414.65,3.26Z"/>
      <path class="cls-1" d="m608.67,3.26h72.79c31.88,0,54.22,19.58,54.22,48.95,0,24.85-15.06,49.7-39.16,63.25l4.52,11.8c3.01,8.03,7.53,10.29,14.81,10.29h8.79l-7.53,41.42h-24.35c-18.83,0-28.62-8.28-32.63-22.59l-8.79-30.87h-17.32l-9.79,53.46h-48.19L608.67,3.26Zm52.71,81.58c13.8,0,24.85-11.29,24.85-25.35,0-10.04-7.28-15.56-17.32-15.56h-19.58l-7.53,40.91h19.58Z"/>
    </g>
  </g>
</svg>