<?xml version="1.0" encoding="UTF-8"?>
<svg width="379.056px" height="35.184px" viewBox="0 0 379.056 35.184" version="1.1" xmlns="http://www.w3.org/2000/svg" xmlns:xlink="http://www.w3.org/1999/xlink">
    <title>devyn lowry</title>
    <g id="Flats" stroke="none" stroke-width="1" fill="none" fill-rule="evenodd">
        <g id="FLATS-V4-//-Loading" transform="translate(-25.7683, -431.488)" fill="#0D0D0D" fill-rule="nonzero">
            <g id="devyn-lowry" transform="translate(25.7683, 431.488)">
                <path d="M1.42108547e-14,34.512 L12.96,34.512 C22.224,34.512 31.824,32.16 31.824,17.568 C31.824,3.024 22.224,0.672 12.96,0.672 L1.42108547e-14,0.672 L1.42108547e-14,34.512 Z M8.736,26.832 L8.736,8.304 L12.96,8.304 C18.72,8.304 23.088,8.496 23.088,17.568 C23.088,26.64 18.768,26.832 12.96,26.832 L8.736,26.832 Z" id="Shape"></path>
                <polygon id="Path" points="35.952 34.512 62.88 34.512 62.88 26.88 44.736 26.88 44.736 21.168 60.48 21.168 60.48 13.968 44.736 13.968 44.736 8.304 62.88 8.304 62.88 0.672 35.952 0.672"></polygon>
                <polygon id="Path" points="74.352 34.512 93.12 34.512 102.528 0.672 93.36 0.672 84.864 32.352 82.704 32.352 74.16 0.672 64.896 0.672"></polygon>
                <polygon id="Path" points="127.968 0.672 121.344 19.488 119.184 19.488 112.608 0.672 103.296 0.672 111.36 21.456 115.92 21.456 115.92 34.512 124.608 34.512 124.608 21.456 129.168 21.456 137.328 0.672"></polygon>
                <polygon id="Path" points="140.64 34.512 149.376 34.512 149.376 8.16 147.696 2.832 149.856 2.832 158.208 34.512 175.344 34.512 175.344 0.672 166.608 0.672 166.608 27.024 168.288 32.352 166.128 32.352 157.776 0.672 140.64 0.672"></polygon>
                <path d="M198.336,34.512 L218.88,34.512 L218.88,26.832 L202.608,26.832 L202.608,0.672 L193.872,0.672 L193.872,30.144 C193.872,33.024 195.504,34.512 198.336,34.512 Z" id="Path"></path>
                <path d="M220.944,17.568 C220.944,27.6 227.712,35.184 238.752,35.184 C249.744,35.184 256.464,27.6 256.464,17.568 C256.464,7.584 249.744,0 238.752,0 C227.712,0 220.944,7.584 220.944,17.568 Z M229.968,17.568 C229.968,11.472 232.896,7.92 238.752,7.92 C244.56,7.92 247.488,11.424 247.488,17.568 C247.488,23.712 244.608,27.264 238.752,27.264 C232.896,27.264 229.968,23.712 229.968,17.568 Z" id="Shape"></path>
                <polygon id="Path" points="308.448 0.672 299.76 0.672 296.448 26.16 296.976 32.352 294.816 32.352 292.56 0.672 274.8 0.672 272.496 32.352 270.384 32.352 271.008 26.112 267.552 0.672 258.816 0.672 263.328 34.512 280.32 34.512 282.624 2.832 284.736 2.832 287.04 34.512 303.936 34.512"></polygon>
                <path d="M312.192,34.512 L320.976,34.512 L320.976,23.04 L333.984,23.04 L333.984,34.512 L342.672,34.512 L342.672,24.288 C342.672,21.168 341.04,19.248 338.16,19.248 L334.512,19.248 L334.512,17.184 C337.584,16.704 342.288,15.264 342.288,9.648 C342.288,2.208 334.752,0.672 327.12,0.672 L312.192,0.672 L312.192,34.512 Z M320.976,15.456 L320.976,8.304 L327.12,8.304 C330.816,8.304 333.6,8.4 333.6,11.856 C333.6,15.264 331.056,15.456 327.12,15.456 L320.976,15.456 Z" id="Shape"></path>
                <polygon id="Path" points="369.696 0.672 363.072 19.488 360.912 19.488 354.336 0.672 345.024 0.672 353.088 21.456 357.648 21.456 357.648 34.512 366.336 34.512 366.336 21.456 370.896 21.456 379.056 0.672"></polygon>
            </g>
        </g>
    </g>
</svg>